<svg id="my-svg" width="100%" xmlns="http://www.w3.org/2000/svg" xmlns:xlink="http://www.w3.org/1999/xlink" class="flowchart" style="max-width: 1134.58px; background-color: transparent;" viewBox="0 0 1134.578125 194" role="graphics-document document" aria-roledescription="flowchart-v2"><style>#my-svg{font-family:"trebuchet ms",verdana,arial,sans-serif;font-size:16px;fill:#ccc;}@keyframes edge-animation-frame{from{stroke-dashoffset:0;}}@keyframes dash{to{stroke-dashoffset:0;}}#my-svg .edge-animation-slow{stroke-dasharray:9,5!important;stroke-dashoffset:900;animation:dash 50s linear infinite;stroke-linecap:round;}#my-svg .edge-animation-fast{stroke-dasharray:9,5!important;stroke-dashoffset:900;animation:dash 20s linear infinite;stroke-linecap:round;}#my-svg .error-icon{fill:#a44141;}#my-svg .error-text{fill:#ddd;stroke:#ddd;}#my-svg .edge-thickness-normal{stroke-width:1px;}#my-svg .edge-thickness-thick{stroke-width:3.5px;}#my-svg .edge-pattern-solid{stroke-dasharray:0;}#my-svg .edge-thickness-invisible{stroke-width:0;fill:none;}#my-svg .edge-pattern-dashed{stroke-dasharray:3;}#my-svg .edge-pattern-dotted{stroke-dasharray:2;}#my-svg .marker{fill:lightgrey;stroke:lightgrey;}#my-svg .marker.cross{stroke:lightgrey;}#my-svg svg{font-family:"trebuchet ms",verdana,arial,sans-serif;font-size:16px;}#my-svg p{margin:0;}#my-svg .label{font-family:"trebuchet ms",verdana,arial,sans-serif;color:#ccc;}#my-svg .cluster-label text{fill:#F9FFFE;}#my-svg .cluster-label span{color:#F9FFFE;}#my-svg .cluster-label span p{background-color:transparent;}#my-svg .label text,#my-svg span{fill:#ccc;color:#ccc;}#my-svg .node rect,#my-svg .node circle,#my-svg .node ellipse,#my-svg .node polygon,#my-svg .node path{fill:#1f2020;stroke:#ccc;stroke-width:1px;}#my-svg .rough-node .label text,#my-svg .node .label text,#my-svg .image-shape .label,#my-svg .icon-shape .label{text-anchor:middle;}#my-svg .node .katex path{fill:#000;stroke:#000;stroke-width:1px;}#my-svg .rough-node .label,#my-svg .node .label,#my-svg .image-shape .label,#my-svg .icon-shape .label{text-align:center;}#my-svg .node.clickable{cursor:pointer;}#my-svg .root .anchor path{fill:lightgrey!important;stroke-width:0;stroke:lightgrey;}#my-svg .arrowheadPath{fill:lightgrey;}#my-svg .edgePath .path{stroke:lightgrey;stroke-width:1px;}#my-svg .flowchart-link{stroke:lightgrey;fill:none;}#my-svg .edgeLabel{background-color:hsl(0, 0%, 34.4117647059%);text-align:center;}#my-svg .edgeLabel p{background-color:hsl(0, 0%, 34.4117647059%);}#my-svg .edgeLabel rect{opacity:0.5;background-color:hsl(0, 0%, 34.4117647059%);fill:hsl(0, 0%, 34.4117647059%);}#my-svg .labelBkg{background-color:rgba(87.75, 87.75, 87.75, 0.5);}#my-svg .cluster rect{fill:hsl(180, 1.5873015873%, 28.3529411765%);stroke:rgba(255, 255, 255, 0.25);stroke-width:1px;}#my-svg .cluster text{fill:#F9FFFE;}#my-svg .cluster span{color:#F9FFFE;}#my-svg div.mermaidTooltip{position:absolute;text-align:center;max-width:200px;padding:2px;font-family:"trebuchet ms",verdana,arial,sans-serif;font-size:12px;background:hsl(20, 1.5873015873%, 12.3529411765%);border:1px solid rgba(255, 255, 255, 0.25);border-radius:2px;pointer-events:none;z-index:100;}#my-svg .flowchartTitleText{text-anchor:middle;font-size:18px;fill:#ccc;}#my-svg rect.text{fill:none;stroke-width:0;}#my-svg .icon-shape,#my-svg .image-shape{background-color:hsl(0, 0%, 34.4117647059%);text-align:center;}#my-svg .icon-shape p,#my-svg .image-shape p{background-color:hsl(0, 0%, 34.4117647059%);padding:2px;}#my-svg .icon-shape .label rect,#my-svg .image-shape .label rect{opacity:0.5;background-color:hsl(0, 0%, 34.4117647059%);fill:hsl(0, 0%, 34.4117647059%);}#my-svg .label-icon{display:inline-block;height:1em;overflow:visible;vertical-align:-0.125em;}#my-svg .node .label-icon path{fill:currentColor;stroke:revert;stroke-width:revert;}#my-svg .node .neo-node{stroke:#ccc;}#my-svg [data-look="neo"].node rect,#my-svg [data-look="neo"].cluster rect,#my-svg [data-look="neo"].node polygon{stroke:url(#my-svg-gradient);filter:drop-shadow( 1px 2px 2px rgba(185,185,185,1));}#my-svg [data-look="neo"].node path{stroke:url(#my-svg-gradient);stroke-width:1px;}#my-svg [data-look="neo"].node .outer-path{filter:drop-shadow( 1px 2px 2px rgba(185,185,185,1));}#my-svg [data-look="neo"].node .neo-line path{stroke:#ccc;filter:none;}#my-svg [data-look="neo"].node circle{stroke:url(#my-svg-gradient);filter:drop-shadow( 1px 2px 2px rgba(185,185,185,1));}#my-svg [data-look="neo"].node circle .state-start{fill:#000000;}#my-svg [data-look="neo"].icon-shape .icon{fill:url(#my-svg-gradient);filter:drop-shadow( 1px 2px 2px rgba(185,185,185,1));}#my-svg [data-look="neo"].icon-shape .icon-neo path{stroke:url(#my-svg-gradient);filter:drop-shadow( 1px 2px 2px rgba(185,185,185,1));}#my-svg :root{--mermaid-font-family:"trebuchet ms",verdana,arial,sans-serif;}</style><g><marker id="my-svg_flowchart-v2-pointEnd" class="marker flowchart-v2" viewBox="0 0 10 10" refX="5" refY="5" markerUnits="userSpaceOnUse" markerWidth="8" markerHeight="8" orient="auto"><path d="M 0 0 L 10 5 L 0 10 z" class="arrowMarkerPath" style="stroke-width: 1; stroke-dasharray: 1, 0;"/></marker><marker id="my-svg_flowchart-v2-pointStart" class="marker flowchart-v2" viewBox="0 0 10 10" refX="4.5" refY="5" markerUnits="userSpaceOnUse" markerWidth="8" markerHeight="8" orient="auto"><path d="M 0 5 L 10 10 L 10 0 z" class="arrowMarkerPath" style="stroke-width: 1; stroke-dasharray: 1, 0;"/></marker><marker id="my-svg_flowchart-v2-pointEnd-margin" class="marker flowchart-v2" viewBox="0 0 11.5 14" refX="11.5" refY="7" markerUnits="userSpaceOnUse" markerWidth="10.5" markerHeight="14" orient="auto"><path d="M 0 0 L 11.5 7 L 0 14 z" class="arrowMarkerPath" style="stroke-width: 0; stroke-dasharray: 1, 0;"/></marker><marker id="my-svg_flowchart-v2-pointStart-margin" class="marker flowchart-v2" viewBox="0 0 11.5 14" refX="1" refY="7" markerUnits="userSpaceOnUse" markerWidth="11.5" markerHeight="14" orient="auto"><polygon points="0,7 11.5,14 11.5,0" class="arrowMarkerPath" style="stroke-width: 0; stroke-dasharray: 1, 0;"/></marker><marker id="my-svg_flowchart-v2-circleEnd" class="marker flowchart-v2" viewBox="0 0 10 10" refX="11" refY="5" markerUnits="userSpaceOnUse" markerWidth="11" markerHeight="11" orient="auto"><circle cx="5" cy="5" r="5" class="arrowMarkerPath" style="stroke-width: 1; stroke-dasharray: 1, 0;"/></marker><marker id="my-svg_flowchart-v2-circleStart" class="marker flowchart-v2" viewBox="0 0 10 10" refX="-1" refY="5" markerUnits="userSpaceOnUse" markerWidth="11" markerHeight="11" orient="auto"><circle cx="5" cy="5" r="5" class="arrowMarkerPath" style="stroke-width: 1; stroke-dasharray: 1, 0;"/></marker><marker id="my-svg_flowchart-v2-circleEnd-margin" class="marker flowchart-v2" viewBox="0 0 10 10" refY="5" refX="12.25" markerUnits="userSpaceOnUse" markerWidth="14" markerHeight="14" orient="auto"><circle cx="5" cy="5" r="5" class="arrowMarkerPath" style="stroke-width: 0; stroke-dasharray: 1, 0;"/></marker><marker id="my-svg_flowchart-v2-circleStart-margin" class="marker flowchart-v2" viewBox="0 0 10 10" refX="-2" refY="5" markerUnits="userSpaceOnUse" markerWidth="14" markerHeight="14" orient="auto"><circle cx="5" cy="5" r="5" class="arrowMarkerPath" style="stroke-width: 0; stroke-dasharray: 1, 0;"/></marker><marker id="my-svg_flowchart-v2-crossEnd" class="marker cross flowchart-v2" viewBox="0 0 11 11" refX="12" refY="5.2" markerUnits="userSpaceOnUse" markerWidth="11" markerHeight="11" orient="auto"><path d="M 1,1 l 9,9 M 10,1 l -9,9" class="arrowMarkerPath" style="stroke-width: 2; stroke-dasharray: 1, 0;"/></marker><marker id="my-svg_flowchart-v2-crossStart" class="marker cross flowchart-v2" viewBox="0 0 11 11" refX="-1" refY="5.2" markerUnits="userSpaceOnUse" markerWidth="11" markerHeight="11" orient="auto"><path d="M 1,1 l 9,9 M 10,1 l -9,9" class="arrowMarkerPath" style="stroke-width: 2; stroke-dasharray: 1, 0;"/></marker><marker id="my-svg_flowchart-v2-crossEnd-margin" class="marker cross flowchart-v2" viewBox="0 0 15 15" refX="17.7" refY="7.5" markerUnits="userSpaceOnUse" markerWidth="12" markerHeight="12" orient="auto"><path d="M 1,1 L 14,14 M 1,14 L 14,1" class="arrowMarkerPath" style="stroke-width: 2.5;"/></marker><marker id="my-svg_flowchart-v2-crossStart-margin" class="marker cross flowchart-v2" viewBox="0 0 15 15" refX="-3.5" refY="7.5" markerUnits="userSpaceOnUse" markerWidth="12" markerHeight="12" orient="auto"><path d="M 1,1 L 14,14 M 1,14 L 14,1" class="arrowMarkerPath" style="stroke-width: 2.5; stroke-dasharray: 1, 0;"/></marker><g class="root"><g class="clusters"><g class="cluster" id="my-svg-Secrets" data-look="classic"><rect style="" x="936.5" y="8" width="190.078125" height="178"/><g class="cluster-label" transform="translate(971.3515625, 8)"><foreignObject width="120.375" height="24"><div xmlns="http://www.w3.org/1999/xhtml" style="display: table-cell; white-space: nowrap; line-height: 1.5;"><span class="nodeLabel"><p>Key Vault (input)</p></span></div></foreignObject></g></g><g class="cluster" id="my-svg-Security" data-look="classic"><rect style="" x="476.90625" y="8" width="409.59375" height="178"/><g class="cluster-label" transform="translate(620.203125, 8)"><foreignObject width="123" height="24"><div xmlns="http://www.w3.org/1999/xhtml" style="display: table-cell; white-space: nowrap; line-height: 1.5;"><span class="nodeLabel"><p>Identity &amp; Access</p></span></div></foreignObject></g></g><g class="cluster" id="my-svg-Environment" data-look="classic"><rect style="" x="193.0703125" y="8" width="264.625" height="178"/><g class="cluster-label" transform="translate(197.0703125, 8)"><foreignObject width="256.625" height="24"><div xmlns="http://www.w3.org/1999/xhtml" style="display: table-cell; white-space: nowrap; line-height: 1.5;"><span class="nodeLabel"><p>Container Apps Environment (input)</p></span></div></foreignObject></g></g></g><g class="edgePaths"><path d="M173.859,97L178.026,97C182.193,97,190.526,97,198.859,97C207.193,97,215.526,97,223.276,97.07C231.026,97.141,238.193,97.281,241.777,97.351L245.36,97.422" id="my-svg-L_gh_job_0" class="edge-thickness-normal edge-pattern-dotted edge-thickness-normal edge-pattern-solid flowchart-link" style=";" data-edge="true" data-et="edge" data-id="L_gh_job_0" data-points="W3sieCI6MTczLjg1OTM3NSwieSI6OTd9LHsieCI6MTk4Ljg1OTM3NSwieSI6OTd9LHsieCI6MjIzLjg1OTM3NSwieSI6OTd9LHsieCI6MjQ5LjM1OTM3NSwieSI6OTcuNX1d" data-look="classic" marker-end="url(#my-svg_flowchart-v2-pointEnd)"/><path d="M398.58,97.5L403.301,97.417C408.022,97.333,417.464,97.167,426.352,97.083C435.24,97,443.573,97,451.906,97C460.24,97,468.573,97,476.323,97.07C484.073,97.141,491.24,97.281,494.824,97.351L498.407,97.422" id="my-svg-L_job_mi_0" class="edge-thickness-normal edge-pattern-solid edge-thickness-normal edge-pattern-solid flowchart-link" style=";" data-edge="true" data-et="edge" data-id="L_job_mi_0" data-points="W3sieCI6Mzk4LjU4MDA3ODEyNSwieSI6OTcuNX0seyJ4Ijo0MjYuOTA2MjUsInkiOjk3fSx7IngiOjQ1MS45MDYyNSwieSI6OTd9LHsieCI6NDc2LjkwNjI1LCJ5Ijo5N30seyJ4Ijo1MDIuNDA2MjUsInkiOjk3LjV9XQ==" data-look="classic" marker-end="url(#my-svg_flowchart-v2-pointEnd)"/><path d="M632.477,97.5L637.117,97.417C641.756,97.333,651.034,97.167,659.173,97.083C667.313,97,674.313,97,677.813,97L681.313,97" id="my-svg-L_mi_kvaccess_0" class="edge-thickness-normal edge-pattern-solid edge-thickness-normal edge-pattern-solid flowchart-link" style=";" data-edge="true" data-et="edge" data-id="L_mi_kvaccess_0" data-points="W3sieCI6NjMyLjQ3NzM0Mzc1LCJ5Ijo5Ny41fSx7IngiOjY2MC4zMTI1LCJ5Ijo5N30seyJ4Ijo2ODUuMzEyNSwieSI6OTd9XQ==" data-look="classic" marker-end="url(#my-svg_flowchart-v2-pointEnd)"/><path d="M861.5,97L865.667,97C869.833,97,878.167,97,886.5,97C894.833,97,903.167,97,911.5,97C919.833,97,928.167,97,935.917,97.07C943.667,97.141,950.834,97.281,954.417,97.351L958.001,97.422" id="my-svg-L_kvaccess_kv_0" class="edge-thickness-normal edge-pattern-solid edge-thickness-normal edge-pattern-solid flowchart-link" style=";" data-edge="true" data-et="edge" data-id="L_kvaccess_kv_0" data-points="W3sieCI6ODYxLjUsInkiOjk3fSx7IngiOjg4Ni41LCJ5Ijo5N30seyJ4Ijo5MTEuNSwieSI6OTd9LHsieCI6OTM2LjUsInkiOjk3fSx7IngiOjk2MiwieSI6OTcuNX1d" data-look="classic" marker-end="url(#my-svg_flowchart-v2-pointEnd)"/></g><g class="edgeLabels"><g class="edgeLabel"><g class="label" data-id="L_gh_job_0" transform="translate(0, 0)"><foreignObject width="0" height="0"><div xmlns="http://www.w3.org/1999/xhtml" class="labelBkg" style="display: table-cell; white-space: nowrap; line-height: 1.5; max-width: 200px; text-align: center;"><span class="edgeLabel"></span></div></foreignObject></g></g><g class="edgeLabel"><g class="label" data-id="L_job_mi_0" transform="translate(0, 0)"><foreignObject width="0" height="0"><div xmlns="http://www.w3.org/1999/xhtml" class="labelBkg" style="display: table-cell; white-space: nowrap; line-height: 1.5; max-width: 200px; text-align: center;"><span class="edgeLabel"></span></div></foreignObject></g></g><g class="edgeLabel"><g class="label" data-id="L_mi_kvaccess_0" transform="translate(0, 0)"><foreignObject width="0" height="0"><div xmlns="http://www.w3.org/1999/xhtml" class="labelBkg" style="display: table-cell; white-space: nowrap; line-height: 1.5; max-width: 200px; text-align: center;"><span class="edgeLabel"></span></div></foreignObject></g></g><g class="edgeLabel"><g class="label" data-id="L_kvaccess_kv_0" transform="translate(0, 0)"><foreignObject width="0" height="0"><div xmlns="http://www.w3.org/1999/xhtml" class="labelBkg" style="display: table-cell; white-space: nowrap; line-height: 1.5; max-width: 200px; text-align: center;"><span class="edgeLabel"></span></div></foreignObject></g></g></g><g class="nodes"><g class="icon-shape default" id="my-svg-flowchart-job-0" data-look="classic" transform="translate(325.3828125, 97)"><g transform="translate(0,-30)"><path d="M-24 -24 L24 -24 L24 24 L-24 24" stroke="none" stroke-width="0" fill="none"/></g><g class="label" style="" transform="translate(-76.5234375,2)"><rect/><foreignObject width="153.046875" height="52"><div xmlns="http://www.w3.org/1999/xhtml" class="labelBkg" style="display: table-cell; white-space: nowrap; line-height: 1.5; max-width: 200px; text-align: center;"><span class="nodeLabel"><p>Container App Job<br />        (Self-Hosted Runner)</p></span></div></foreignObject></g><g><path d="M-76.5234375 -54 L76.5234375 -54 L76.5234375 54 L-76.5234375 54" stroke="none" stroke-width="0" fill="transparent"/></g><g transform="translate(-23.999264705111273,-53.99999523162842)" style="color: #ccc;"><g><svg xmlns="http://www.w3.org/2000/svg" width="48" height="48" viewBox="0 0 18 18"><defs><linearGradient id="IconifyId19dbefa25982d77d60" x1="8.798" x2="14.683" y1="8.703" y2="8.703" gradientUnits="userSpaceOnUse"><stop offset=".001" stop-color="#773adc"/><stop offset="1" stop-color="#552f99"/></linearGradient><linearGradient id="IconifyId19dbefa25982d77d61" x1="5.764" x2="5.764" y1="3.777" y2="13.78" gradientUnits="userSpaceOnUse"><stop offset="0" stop-color="#a67af4"/><stop offset=".999" stop-color="#773adc"/></linearGradient></defs><path fill="#32bedd" d="M16.932 11.578a8.45 8.45 0 01-7.95 5.59 8.2 8.2 0 01-2.33-.33 2.1 2.1 0 00.18-.83c.01 0 .03.01.04.01a7.4 7.4 0 002.11.3 7.65 7.65 0 006.85-4.28l.01-.01Zm-13.35 2.49a2 2 0 00-.64.56 8.6 8.6 0 01-1.67-2.44l1.04.23v.26a.6.6 0 00.47.59l.14.03a6 6 0 00.62.73Zm8.77-13.11a2.3 2.3 0 00-.27.81c-.02-.01-.05-.02-.07-.03a7.5 7.5 0 00-3.03-.63 7.64 7.64 0 00-5.9 2.8l-.29.06a.6.6 0 00-.48.58v.46l-1.02.19a8.45 8.45 0 017.69-4.93 8.6 8.6 0 013.37.69m4.52 4.742-1.09-.38a6.6 6.6 0 00-.72-1.16c-.02-.03-.04-.05-.05-.07a2.1 2.1 0 00.72-.45 7.8 7.8 0 011.14 2.06"/><path fill="#fff" d="m10.072 11.908 2.54.56-3.94 1.632c-.02 0-.03.01-.05.01a.154.154 0 01-.15-.15V3.448a.154.154 0 01.15-.15.1.1 0 01.05.01l4.46 1.56-3.05.57a.565.565 0 00-.44.54v5.4a.54.54 0 00.43.53"/><path fill="#a67af4" d="m1.1 5.668 1.21-.23v6.55l-1.23-.27-.99-.22a.11.11 0 01-.09-.12v-5.4a.12.12 0 01.09-.12Z"/><path fill="url(#IconifyId19dbefa25982d77d60)" d="m10.072 11.908 2.54.56-3.94 1.632c-.02 0-.03.01-.05.01a.154.154 0 01-.15-.15V3.448a.154.154 0 01.15-.15.1.1 0 01.05.01l4.46 1.56-3.05.57a.565.565 0 00-.44.54v5.4a.54.54 0 00.43.53"/><path fill="url(#IconifyId19dbefa25982d77d61)" d="M8.586 3.3 2.878 4.378a.18.18 0 00-.14.175v8.127a.18.18 0 00.137.174L8.581 14.1a.176.176 0 00.21-.174V3.478a.175.175 0 00-.172-.178Z"/><path fill="#b796f9" d="M5.948 4.921v7.562l1.986.331v-8.25zm-2.439.408v6.625l1.729.363V5.031z" opacity=".5"/><path fill="#32bedd" d="M16 2.048a1.755 1.755 0 11-1.76-1.76A1.756 1.756 0 0116 2.048"/><circle cx="4.65" cy="15.973" r="1.759" fill="#32bedd"/><path fill="#773adc" d="M18 6.689v3.844a.22.22 0 01-.133.2l-.766.316-3.07 1.268h-.011a.1.1 0 01-.038 0 .1.1 0 01-.1-.1V5.234a.1.1 0 01.054-.088h.019a.03.03 0 01.019 0 .06.06 0 01.034.008h.023L17.05 6.2l.8.282a.21.21 0 01.15.207"/><path fill="#a67af4" d="m13.959 5.14-3.8.715a.12.12 0 00-.093.117v5.409a.12.12 0 00.091.116l3.8.831a.115.115 0 00.137-.09V5.256a.117.117 0 00-.115-.118z"/></svg></g></g></g><g class="icon-shape default" id="my-svg-flowchart-mi-3" data-look="classic" transform="translate(568.609375, 97)"><g transform="translate(0,-30)"><path d="M-24 -24 L24 -24 L24 24 L-24 24" stroke="none" stroke-width="0" fill="none"/></g><g class="label" style="" transform="translate(-66.703125,2)"><rect/><foreignObject width="133.40625" height="52"><div xmlns="http://www.w3.org/1999/xhtml" class="labelBkg" style="display: table-cell; white-space: nowrap; line-height: 1.5; max-width: 200px; text-align: center;"><span class="nodeLabel"><p>Managed Identity<br />        (System-Assigned)</p></span></div></foreignObject></g><g><path d="M-66.703125 -54 L66.703125 -54 L66.703125 54 L-66.703125 54" stroke="none" stroke-width="0" fill="transparent"/></g><g transform="translate(-24.00000062584877,-55.33579707145691)" style="color: #ccc;"><g><svg xmlns="http://www.w3.org/2000/svg" width="48" height="48" viewBox="0 0 18 18"><defs><linearGradient id="IconifyId19dbefa25982d77d64" x1="13.18" x2="8.63" y1="13.01" y2="4.38" gradientUnits="userSpaceOnUse"><stop offset="0" stop-color="#1988d9"/><stop offset=".9" stop-color="#54aef0"/></linearGradient><linearGradient id="IconifyId19dbefa25982d77d65" x1="11.22" x2="14.37" y1="10.5" y2="15.93" gradientUnits="userSpaceOnUse"><stop offset=".1" stop-color="#54aef0"/><stop offset=".29" stop-color="#4fabee"/><stop offset=".51" stop-color="#41a2e9"/><stop offset=".74" stop-color="#2a93e0"/><stop offset=".88" stop-color="#1988d9"/></linearGradient></defs><path fill="#50e6ff" d="m1.15 10.22 7.78 5.05 7.92-5.06 1 1.15-8.92 5.75-8.78-5.74z"/><path fill="#fff" d="M1.73 9.58 8.93 1l7.35 8.59-7.35 4.64z"/><path fill="#50e6ff" d="M8.93 1v13.23l-7.2-4.65z"/><path fill="url(#IconifyId19dbefa25982d77d64)" d="M8.93 1v13.23l7.35-4.64z"/><path fill="#53b1e0" d="m8.93 7.83 7.35 1.76-7.35 4.64z"/><path fill="#9cebff" d="m8.93 14.23-7.2-4.65 7.2-1.75z"/><path fill="url(#IconifyId19dbefa25982d77d65)" d="m8.93 17.11 8.92-5.75-1-1.15-7.92 5.06z"/><path fill="#ffca00" d="M16.32 11.88a1.16 1.16 0 000-1.65l-2-2a1.16 1.16 0 00-1.64 0l-2 2a1.18 1.18 0 000 1.65l1.67 1.67a.32.32 0 01.09.23v3.1a.36.36 0 00.12.28l.76.76a.25.25 0 00.37 0l.73-.73.44-.44a.15.15 0 000-.21l-.31-.31a.16.16 0 010-.24l.31-.31a.16.16 0 000-.22l-.31-.31a.15.15 0 010-.23l.31-.32a.15.15 0 000-.21l-.44-.44v-.16ZM13.5 8.71a.66.66 0 11-.66.66.66.66 0 01.66-.66"/><path fill="#ff9300" d="M13 17a.14.14 0 00.24-.11v-2.56a.16.16 0 00-.06-.13.14.14 0 00-.22.13v2.51A.15.15 0 0013 17" opacity=".75"/><rect width="3.29" height=".39" x="11.9" y="10.9" fill="#ff9300" opacity=".75" rx=".18"/><rect width="3.29" height=".39" x="11.9" y="11.53" fill="#ff9300" opacity=".75" rx=".18"/></svg></g></g></g><g class="node default" id="my-svg-flowchart-kvaccess-6" data-look="classic" transform="translate(773.40625, 97)"><rect class="basic label-container" style="" x="-88.09375" y="-39" width="176.1875" height="78"/><g class="label" style="" transform="translate(-58.09375, -24)"><rect/><foreignObject width="116.1875" height="48"><div xmlns="http://www.w3.org/1999/xhtml" style="display: table-cell; white-space: nowrap; line-height: 1.5; max-width: 200px; text-align: center;"><span class="nodeLabel"><p>KV Access Policy<br />        or RBAC Role</p></span></div></foreignObject></g></g><g class="icon-shape default" id="my-svg-flowchart-kv-7" data-look="classic" transform="translate(1031.5390625, 97)"><g transform="translate(0,-30)"><path d="M-24 -24 L24 -24 L24 24 L-24 24" stroke="none" stroke-width="0" fill="none"/></g><g class="label" style="" transform="translate(-70.0390625,2)"><rect/><foreignObject width="140.078125" height="52"><div xmlns="http://www.w3.org/1999/xhtml" class="labelBkg" style="display: table-cell; white-space: nowrap; line-height: 1.5; max-width: 200px; text-align: center;"><span class="nodeLabel"><p>GitHub Credentials<br />        (PAT or App Key)</p></span></div></foreignObject></g><g><path d="M-70.0390625 -54 L70.0390625 -54 L70.0390625 54 L-70.0390625 54" stroke="none" stroke-width="0" fill="transparent"/></g><g transform="translate(-24.000000596046448,-54.000001311302185)" style="color: #ccc;"><g><svg xmlns="http://www.w3.org/2000/svg" width="48" height="48" viewBox="0 0 18 18"><defs><radialGradient id="IconifyId19dbefa25982d77d62" cx="9" cy="9" r="8.5" gradientUnits="userSpaceOnUse"><stop offset=".18" stop-color="#5ea0ef"/><stop offset=".56" stop-color="#5c9fee"/><stop offset=".69" stop-color="#559ced"/><stop offset=".78" stop-color="#4a97e9"/><stop offset=".86" stop-color="#3990e4"/><stop offset=".93" stop-color="#2387de"/><stop offset=".99" stop-color="#087bd6"/><stop offset="1" stop-color="#0078d4"/></radialGradient><radialGradient id="IconifyId19dbefa25982d77d63" cx="38.95" cy="182.07" r="9.88" gradientTransform="matrix(.94 0 0 .94 -28.71 -163.24)" gradientUnits="userSpaceOnUse"><stop offset=".27" stop-color="#ffd70f"/><stop offset=".49" stop-color="#ffcb12"/><stop offset=".88" stop-color="#feac19"/><stop offset="1" stop-color="#fea11b"/></radialGradient></defs><path fill="url(#IconifyId19dbefa25982d77d62)" d="M9 .5A8.5 8.5 0 1017.5 9 8.51 8.51 0 009 .5m0 15.84A7.34 7.34 0 1116.34 9 7.34 7.34 0 019 16.34"/><circle cx="9" cy="9" r="7.34" fill="#fff"/><path fill="url(#IconifyId19dbefa25982d77d63)" d="M13.44 7.33a1.84 1.84 0 000-2.59l-3.15-3.16a1.83 1.83 0 00-2.58 0L4.56 4.74a1.84 1.84 0 000 2.59L7.18 10a.5.5 0 01.15.36v4.88a.63.63 0 00.18.44l1.2 1.2a.41.41 0 00.58 0l1.16-1.16.68-.68a.25.25 0 000-.34l-.49-.49a.27.27 0 010-.37l.49-.49a.25.25 0 000-.34l-.49-.49a.27.27 0 010-.37l.49-.49a.25.25 0 000-.34l-.68-.69v-.25ZM9 2.35a1 1 0 010 2.07 1 1 0 110-2.07"/><path fill="#ff9300" d="M8.18 15.3a.23.23 0 00.38-.17v-4a.24.24 0 00-.11-.2.22.22 0 00-.34.2v4a.28.28 0 00.07.17" opacity=".75"/><rect width="5.17" height=".61" x="6.48" y="5.79" fill="#ff9300" opacity=".75" rx=".28"/><rect width="5.17" height=".61" x="6.48" y="6.78" fill="#ff9300" opacity=".75" rx=".28"/></svg></g></g></g><g class="node default" id="my-svg-flowchart-gh-10" data-look="classic" transform="translate(90.9296875, 97)"><rect class="basic label-container" style="" x="-82.9296875" y="-39" width="165.859375" height="78"/><g class="label" style="" transform="translate(-52.9296875, -24)"><rect/><foreignObject width="105.859375" height="48"><div xmlns="http://www.w3.org/1999/xhtml" style="display: table-cell; white-space: nowrap; line-height: 1.5; max-width: 200px; text-align: center;"><span class="nodeLabel"><p>GitHub Actions<br />    (KEDA Trigger)</p></span></div></foreignObject></g></g></g></g></g><defs><filter id="my-svg-drop-shadow" height="130%" width="130%"><feDropShadow dx="4" dy="4" stdDeviation="0" flood-opacity="0.06" flood-color="#FFFFFF"/></filter></defs><defs><filter id="my-svg-drop-shadow-small" height="150%" width="150%"><feDropShadow dx="2" dy="2" stdDeviation="0" flood-opacity="0.06" flood-color="#FFFFFF"/></filter></defs><linearGradient id="my-svg-gradient" gradientUnits="objectBoundingBox" x1="0%" y1="0%" x2="100%" y2="0%"><stop offset="0%" stop-color="#cccccc" stop-opacity="1"/><stop offset="100%" stop-color="hsl(180, 0%, 18.3529411765%)" stop-opacity="1"/></linearGradient></svg>