<svg xmlns="http://www.w3.org/2000/svg" viewBox="0 0 24 24">
  <path
    d="M2.97 12.92A2 2 0 0 0 2 14.63v3.24a2 2 0 0 0 .97 1.71l3 1.8a2 2 0 0 0 2.06 0L12 19v-5.5l-5-3-4.03 2.42Z"
    fill="none"
    stroke="#000"
    stroke-linejoin="round"
    stroke-width="2"
  />
  <path d="m7 16.5-4.74-2.85" fill="none" stroke="#000" stroke-linecap="round" stroke-width="2"/>
  <path d="m7 16.5 5-3" fill="none" stroke="#000" stroke-linecap="round" stroke-width="2"/>
  <path d="M7 16.5v5.17" fill="none" stroke="#000" stroke-linecap="round" stroke-width="2"/>
  <path
    d="M12 13.5V19l3.97 2.38a2 2 0 0 0 2.06 0l3-1.8a2 2 0 0 0 .97-1.71v-3.24a2 2 0 0 0-.97-1.71L17 10.5l-5 3Z"
    fill="none"
    stroke="#000"
    stroke-linejoin="round"
    stroke-width="2"
  />
  <path d="m17 16.5-5-3" fill="none" stroke="#000" stroke-linecap="round" stroke-width="2"/>
  <path d="m17 16.5 4.74-2.85" fill="none" stroke="#000" stroke-linecap="round" stroke-width="2"/>
  <path d="M17 16.5v5.17" fill="none" stroke="#000" stroke-linecap="round" stroke-width="2"/>
</svg>
