<svg xmlns="http://www.w3.org/2000/svg" viewBox="0 0 128 128" fill-rule="evenodd">
  <path d="M64 23C74 23 82 26 88 31C92 27 99 26 104 30C111 35 112 47 108 58C106 65 101 70 95 71C95 80 90 92 82 99C77 103 71 106 64 106C57 106 51 103 46 99C38 92 33 80 33 71C27 70 22 65 20 58C16 47 17 35 24 30C29 26 36 27 40 31C46 26 54 23 64 23ZM52 58C49 58 47 60 47 63C47 66 49 68 52 68C55 68 57 66 57 63C57 60 55 58 52 58ZM76 58C73 58 71 60 71 63C71 66 73 68 76 68C79 68 81 66 81 63C81 60 79 58 76 58ZM64 75C60 75 57 78 57 82C57 86 60 88 64 88C68 88 71 86 71 82C71 78 68 75 64 75Z"/>
</svg>
