<svg id="my-svg" width="100%" xmlns="http://www.w3.org/2000/svg" xmlns:xlink="http://www.w3.org/1999/xlink" class="flowchart" style="max-width: 1193.79px; background-color: transparent;" viewBox="0 0 1193.78515625 720" role="graphics-document document" aria-roledescription="flowchart-v2"><style>#my-svg{font-family:"trebuchet ms",verdana,arial,sans-serif;font-size:16px;fill:#ccc;}@keyframes edge-animation-frame{from{stroke-dashoffset:0;}}@keyframes dash{to{stroke-dashoffset:0;}}#my-svg .edge-animation-slow{stroke-dasharray:9,5!important;stroke-dashoffset:900;animation:dash 50s linear infinite;stroke-linecap:round;}#my-svg .edge-animation-fast{stroke-dasharray:9,5!important;stroke-dashoffset:900;animation:dash 20s linear infinite;stroke-linecap:round;}#my-svg .error-icon{fill:#a44141;}#my-svg .error-text{fill:#ddd;stroke:#ddd;}#my-svg .edge-thickness-normal{stroke-width:1px;}#my-svg .edge-thickness-thick{stroke-width:3.5px;}#my-svg .edge-pattern-solid{stroke-dasharray:0;}#my-svg .edge-thickness-invisible{stroke-width:0;fill:none;}#my-svg .edge-pattern-dashed{stroke-dasharray:3;}#my-svg .edge-pattern-dotted{stroke-dasharray:2;}#my-svg .marker{fill:lightgrey;stroke:lightgrey;}#my-svg .marker.cross{stroke:lightgrey;}#my-svg svg{font-family:"trebuchet ms",verdana,arial,sans-serif;font-size:16px;}#my-svg p{margin:0;}#my-svg .label{font-family:"trebuchet ms",verdana,arial,sans-serif;color:#ccc;}#my-svg .cluster-label text{fill:#F9FFFE;}#my-svg .cluster-label span{color:#F9FFFE;}#my-svg .cluster-label span p{background-color:transparent;}#my-svg .label text,#my-svg span{fill:#ccc;color:#ccc;}#my-svg .node rect,#my-svg .node circle,#my-svg .node ellipse,#my-svg .node polygon,#my-svg .node path{fill:#1f2020;stroke:#ccc;stroke-width:1px;}#my-svg .rough-node .label text,#my-svg .node .label text,#my-svg .image-shape .label,#my-svg .icon-shape .label{text-anchor:middle;}#my-svg .node .katex path{fill:#000;stroke:#000;stroke-width:1px;}#my-svg .rough-node .label,#my-svg .node .label,#my-svg .image-shape .label,#my-svg .icon-shape .label{text-align:center;}#my-svg .node.clickable{cursor:pointer;}#my-svg .root .anchor path{fill:lightgrey!important;stroke-width:0;stroke:lightgrey;}#my-svg .arrowheadPath{fill:lightgrey;}#my-svg .edgePath .path{stroke:lightgrey;stroke-width:1px;}#my-svg .flowchart-link{stroke:lightgrey;fill:none;}#my-svg .edgeLabel{background-color:hsl(0, 0%, 34.4117647059%);text-align:center;}#my-svg .edgeLabel p{background-color:hsl(0, 0%, 34.4117647059%);}#my-svg .edgeLabel rect{opacity:0.5;background-color:hsl(0, 0%, 34.4117647059%);fill:hsl(0, 0%, 34.4117647059%);}#my-svg .labelBkg{background-color:rgba(87.75, 87.75, 87.75, 0.5);}#my-svg .cluster rect{fill:hsl(180, 1.5873015873%, 28.3529411765%);stroke:rgba(255, 255, 255, 0.25);stroke-width:1px;}#my-svg .cluster text{fill:#F9FFFE;}#my-svg .cluster span{color:#F9FFFE;}#my-svg div.mermaidTooltip{position:absolute;text-align:center;max-width:200px;padding:2px;font-family:"trebuchet ms",verdana,arial,sans-serif;font-size:12px;background:hsl(20, 1.5873015873%, 12.3529411765%);border:1px solid rgba(255, 255, 255, 0.25);border-radius:2px;pointer-events:none;z-index:100;}#my-svg .flowchartTitleText{text-anchor:middle;font-size:18px;fill:#ccc;}#my-svg rect.text{fill:none;stroke-width:0;}#my-svg .icon-shape,#my-svg .image-shape{background-color:hsl(0, 0%, 34.4117647059%);text-align:center;}#my-svg .icon-shape p,#my-svg .image-shape p{background-color:hsl(0, 0%, 34.4117647059%);padding:2px;}#my-svg .icon-shape .label rect,#my-svg .image-shape .label rect{opacity:0.5;background-color:hsl(0, 0%, 34.4117647059%);fill:hsl(0, 0%, 34.4117647059%);}#my-svg .label-icon{display:inline-block;height:1em;overflow:visible;vertical-align:-0.125em;}#my-svg .node .label-icon path{fill:currentColor;stroke:revert;stroke-width:revert;}#my-svg .node .neo-node{stroke:#ccc;}#my-svg [data-look="neo"].node rect,#my-svg [data-look="neo"].cluster rect,#my-svg [data-look="neo"].node polygon{stroke:url(#my-svg-gradient);filter:drop-shadow( 1px 2px 2px rgba(185,185,185,1));}#my-svg [data-look="neo"].node path{stroke:url(#my-svg-gradient);stroke-width:1px;}#my-svg [data-look="neo"].node .outer-path{filter:drop-shadow( 1px 2px 2px rgba(185,185,185,1));}#my-svg [data-look="neo"].node .neo-line path{stroke:#ccc;filter:none;}#my-svg [data-look="neo"].node circle{stroke:url(#my-svg-gradient);filter:drop-shadow( 1px 2px 2px rgba(185,185,185,1));}#my-svg [data-look="neo"].node circle .state-start{fill:#000000;}#my-svg [data-look="neo"].icon-shape .icon{fill:url(#my-svg-gradient);filter:drop-shadow( 1px 2px 2px rgba(185,185,185,1));}#my-svg [data-look="neo"].icon-shape .icon-neo path{stroke:url(#my-svg-gradient);filter:drop-shadow( 1px 2px 2px rgba(185,185,185,1));}#my-svg :root{--mermaid-font-family:"trebuchet ms",verdana,arial,sans-serif;}</style><g><marker id="my-svg_flowchart-v2-pointEnd" class="marker flowchart-v2" viewBox="0 0 10 10" refX="5" refY="5" markerUnits="userSpaceOnUse" markerWidth="8" markerHeight="8" orient="auto"><path d="M 0 0 L 10 5 L 0 10 z" class="arrowMarkerPath" style="stroke-width: 1; stroke-dasharray: 1, 0;"/></marker><marker id="my-svg_flowchart-v2-pointStart" class="marker flowchart-v2" viewBox="0 0 10 10" refX="4.5" refY="5" markerUnits="userSpaceOnUse" markerWidth="8" markerHeight="8" orient="auto"><path d="M 0 5 L 10 10 L 10 0 z" class="arrowMarkerPath" style="stroke-width: 1; stroke-dasharray: 1, 0;"/></marker><marker id="my-svg_flowchart-v2-pointEnd-margin" class="marker flowchart-v2" viewBox="0 0 11.5 14" refX="11.5" refY="7" markerUnits="userSpaceOnUse" markerWidth="10.5" markerHeight="14" orient="auto"><path d="M 0 0 L 11.5 7 L 0 14 z" class="arrowMarkerPath" style="stroke-width: 0; stroke-dasharray: 1, 0;"/></marker><marker id="my-svg_flowchart-v2-pointStart-margin" class="marker flowchart-v2" viewBox="0 0 11.5 14" refX="1" refY="7" markerUnits="userSpaceOnUse" markerWidth="11.5" markerHeight="14" orient="auto"><polygon points="0,7 11.5,14 11.5,0" class="arrowMarkerPath" style="stroke-width: 0; stroke-dasharray: 1, 0;"/></marker><marker id="my-svg_flowchart-v2-circleEnd" class="marker flowchart-v2" viewBox="0 0 10 10" refX="11" refY="5" markerUnits="userSpaceOnUse" markerWidth="11" markerHeight="11" orient="auto"><circle cx="5" cy="5" r="5" class="arrowMarkerPath" style="stroke-width: 1; stroke-dasharray: 1, 0;"/></marker><marker id="my-svg_flowchart-v2-circleStart" class="marker flowchart-v2" viewBox="0 0 10 10" refX="-1" refY="5" markerUnits="userSpaceOnUse" markerWidth="11" markerHeight="11" orient="auto"><circle cx="5" cy="5" r="5" class="arrowMarkerPath" style="stroke-width: 1; stroke-dasharray: 1, 0;"/></marker><marker id="my-svg_flowchart-v2-circleEnd-margin" class="marker flowchart-v2" viewBox="0 0 10 10" refY="5" refX="12.25" markerUnits="userSpaceOnUse" markerWidth="14" markerHeight="14" orient="auto"><circle cx="5" cy="5" r="5" class="arrowMarkerPath" style="stroke-width: 0; stroke-dasharray: 1, 0;"/></marker><marker id="my-svg_flowchart-v2-circleStart-margin" class="marker flowchart-v2" viewBox="0 0 10 10" refX="-2" refY="5" markerUnits="userSpaceOnUse" markerWidth="14" markerHeight="14" orient="auto"><circle cx="5" cy="5" r="5" class="arrowMarkerPath" style="stroke-width: 0; stroke-dasharray: 1, 0;"/></marker><marker id="my-svg_flowchart-v2-crossEnd" class="marker cross flowchart-v2" viewBox="0 0 11 11" refX="12" refY="5.2" markerUnits="userSpaceOnUse" markerWidth="11" markerHeight="11" orient="auto"><path d="M 1,1 l 9,9 M 10,1 l -9,9" class="arrowMarkerPath" style="stroke-width: 2; stroke-dasharray: 1, 0;"/></marker><marker id="my-svg_flowchart-v2-crossStart" class="marker cross flowchart-v2" viewBox="0 0 11 11" refX="-1" refY="5.2" markerUnits="userSpaceOnUse" markerWidth="11" markerHeight="11" orient="auto"><path d="M 1,1 l 9,9 M 10,1 l -9,9" class="arrowMarkerPath" style="stroke-width: 2; stroke-dasharray: 1, 0;"/></marker><marker id="my-svg_flowchart-v2-crossEnd-margin" class="marker cross flowchart-v2" viewBox="0 0 15 15" refX="17.7" refY="7.5" markerUnits="userSpaceOnUse" markerWidth="12" markerHeight="12" orient="auto"><path d="M 1,1 L 14,14 M 1,14 L 14,1" class="arrowMarkerPath" style="stroke-width: 2.5;"/></marker><marker id="my-svg_flowchart-v2-crossStart-margin" class="marker cross flowchart-v2" viewBox="0 0 15 15" refX="-3.5" refY="7.5" markerUnits="userSpaceOnUse" markerWidth="12" markerHeight="12" orient="auto"><path d="M 1,1 L 14,14 M 1,14 L 14,1" class="arrowMarkerPath" style="stroke-width: 2.5; stroke-dasharray: 1, 0;"/></marker><g class="root"><g class="clusters"/><g class="edgePaths"><path d="M512.711,207.991L516.878,205.159C521.044,202.327,529.378,196.664,561.614,193.832C593.851,191,649.991,191,678.061,191L706.131,191" id="my-svg-L_Messaging_Network_0" class="edge-thickness-normal edge-pattern-solid edge-thickness-normal edge-pattern-solid flowchart-link" style=";" data-edge="true" data-et="edge" data-id="L_Messaging_Network_0" data-points="W3sieCI6NTEyLjcxMDkzNzUsInkiOjIwNy45OTA4MzEzNzMzMjIyN30seyJ4Ijo1MzcuNzEwOTM3NSwieSI6MTkxfSx7IngiOjcxMC4xMzA4NTkzNzUsInkiOjE5MX1d" data-look="classic" marker-end="url(#my-svg_flowchart-v2-pointEnd)"/><path d="M512.711,551.009L516.878,553.841C521.044,556.673,529.378,562.336,537.044,565.168C544.711,568,551.711,568,555.211,568L558.711,568" id="my-svg-L_Messaging_Monitoring_0" class="edge-thickness-normal edge-pattern-dotted edge-thickness-normal edge-pattern-solid flowchart-link" style=";" data-edge="true" data-et="edge" data-id="L_Messaging_Monitoring_0" data-points="W3sieCI6NTEyLjcxMDkzNzUsInkiOjU1MS4wMDkxNjg2MjY2Nzc3fSx7IngiOjUzNy43MTA5Mzc1LCJ5Ijo1Njh9LHsieCI6NTYyLjcxMDkzNzUsInkiOjU2OH1d" data-look="classic" marker-end="url(#my-svg_flowchart-v2-pointEnd)"/></g><g class="edgeLabels"><g class="edgeLabel"><g class="label" data-id="L_Messaging_Network_0" transform="translate(0, 0)"><foreignObject width="0" height="0"><div xmlns="http://www.w3.org/1999/xhtml" class="labelBkg" style="display: table-cell; white-space: nowrap; line-height: 1.5; max-width: 200px; text-align: center;"><span class="edgeLabel"></span></div></foreignObject></g></g><g class="edgeLabel"><g class="label" data-id="L_Messaging_Monitoring_0" transform="translate(0, 0)"><foreignObject width="0" height="0"><div xmlns="http://www.w3.org/1999/xhtml" class="labelBkg" style="display: table-cell; white-space: nowrap; line-height: 1.5; max-width: 200px; text-align: center;"><span class="edgeLabel"></span></div></foreignObject></g></g></g><g class="nodes"><g class="root" transform="translate(554.7109375, 416)"><g class="clusters"><g class="cluster" id="my-svg-Monitoring" data-look="classic"><rect style="" x="8" y="8" width="623.07421875" height="288"/><g class="cluster-label" transform="translate(281.669921875, 8)"><foreignObject width="75.734375" height="24"><div xmlns="http://www.w3.org/1999/xhtml" style="display: table-cell; white-space: nowrap; line-height: 1.5;"><span class="nodeLabel"><p>Monitoring</p></span></div></foreignObject></g></g></g><g class="edgePaths"><path d="M194.174,99.5L184.536,105.75C174.898,112,155.623,124.5,146.06,136.417C136.497,148.333,136.646,159.667,136.72,165.334L136.795,171" id="my-svg-L_diag_law_0" class="edge-thickness-normal edge-pattern-solid edge-thickness-normal edge-pattern-solid flowchart-link" style=";" data-edge="true" data-et="edge" data-id="L_diag_law_0" data-points="W3sieCI6MTk0LjE3Mzc4MjcwMzQ4ODM3LCJ5Ijo5OS41fSx7IngiOjEzNi4zNDc2NTYyNSwieSI6MTM3fSx7IngiOjEzNi44NDc2NTYyNSwieSI6MTc1fV0=" data-look="classic" marker-end="url(#my-svg_flowchart-v2-pointEnd)"/><path d="M277.443,99.5L287.081,105.75C296.719,112,315.994,124.5,325.706,136.417C335.419,148.333,335.568,159.667,335.642,165.334L335.717,171" id="my-svg-L_diag_storage_0" class="edge-thickness-normal edge-pattern-solid edge-thickness-normal edge-pattern-solid flowchart-link" style=";" data-edge="true" data-et="edge" data-id="L_diag_storage_0" data-points="W3sieCI6Mjc3LjQ0MzQwNDc5NjUxMTYzLCJ5Ijo5OS41fSx7IngiOjMzNS4yNjk1MzEyNSwieSI6MTM3fSx7IngiOjMzNS43Njk1MzEyNSwieSI6MTc1fV0=" data-look="classic" marker-end="url(#my-svg_flowchart-v2-pointEnd)"/></g><g class="edgeLabels"><g class="edgeLabel"><g class="label" data-id="L_diag_law_0" transform="translate(0, 0)"><foreignObject width="0" height="0"><div xmlns="http://www.w3.org/1999/xhtml" class="labelBkg" style="display: table-cell; white-space: nowrap; line-height: 1.5; max-width: 200px; text-align: center;"><span class="edgeLabel"></span></div></foreignObject></g></g><g class="edgeLabel"><g class="label" data-id="L_diag_storage_0" transform="translate(0, 0)"><foreignObject width="0" height="0"><div xmlns="http://www.w3.org/1999/xhtml" class="labelBkg" style="display: table-cell; white-space: nowrap; line-height: 1.5; max-width: 200px; text-align: center;"><span class="edgeLabel"></span></div></foreignObject></g></g></g><g class="nodes"><g class="node default" id="my-svg-flowchart-diag-12" data-look="classic" transform="translate(235.80859375, 72.5)"><rect class="basic label-container" style="" x="-97.59375" y="-27" width="195.1875" height="54"/><g class="label" style="" transform="translate(-67.59375, -12)"><rect/><foreignObject width="135.1875" height="24"><div xmlns="http://www.w3.org/1999/xhtml" style="display: table-cell; white-space: nowrap; line-height: 1.5; max-width: 200px; text-align: center;"><span class="nodeLabel"><p>Diagnostic Settings</p></span></div></foreignObject></g></g><g class="icon-shape default" id="my-svg-flowchart-law-14" data-look="classic" transform="translate(136.34765625, 216.5)"><g transform="translate(0,-18)"><path d="M-24 -24 L24 -24 L24 24 L-24 24" stroke="none" stroke-width="0" fill="none"/></g><g class="label" style="" transform="translate(-89.1015625,14)"><rect/><foreignObject width="178.203125" height="28"><div xmlns="http://www.w3.org/1999/xhtml" class="labelBkg" style="display: table-cell; white-space: nowrap; line-height: 1.5; max-width: 200px; text-align: center;"><span class="nodeLabel"><p>Log Analytics Workspace</p></span></div></foreignObject></g><g><path d="M-89.1015625 -42 L89.1015625 -42 L89.1015625 42 L-89.1015625 42" stroke="none" stroke-width="0" fill="transparent"/></g><g transform="translate(-24.001376628875732,-41.99957978725433)" style="color: #ccc;"><g><svg xmlns="http://www.w3.org/2000/svg" width="48" height="48" viewBox="0 0 18 18"><defs><linearGradient id="IconifyId19d9acd58e12fc14e0" x1="5.23" x2="5.23" y1="17.45" y2="8.09" gradientUnits="userSpaceOnUse"><stop offset="0" stop-color="#1988d9"/><stop offset=".9" stop-color="#54aef0"/></linearGradient><linearGradient id="IconifyId19d9acd58e12fc14e1" x1="11.5" x2="11.5" y1="12.45" y2=".55" gradientUnits="userSpaceOnUse"><stop offset="0" stop-color="#198ab3"/><stop offset=".01" stop-color="#198bb4"/><stop offset=".44" stop-color="#27b2d7"/><stop offset=".79" stop-color="#2fcbed"/><stop offset="1" stop-color="#32d4f5"/></linearGradient></defs><path fill="url(#IconifyId19d9acd58e12fc14e0)" d="M5.59 13.13h4.32v4.32H5.59Zm-4.44 4.32h3.72v-4.32H.55v3.72a.6.6 0 00.6.6m-.6-5h4.32V8.09H.55Z"/><path fill="url(#IconifyId19d9acd58e12fc14e1)" fill-rule="evenodd" d="M11.5.55a5.89 5.89 0 015.95 6 5.89 5.89 0 01-5.95 5.95H5.55v-6A5.89 5.89 0 0111.5.55"/><path fill="#fff" d="M7.59 5.65h1.36v4.08H7.59zm2.72 1.36h1.36v2.72h-1.36zm2.72-2.72h1.36v5.44h-1.36z"/></svg></g></g></g><g class="icon-shape default" id="my-svg-flowchart-storage-17" data-look="classic" transform="translate(335.26953125, 216.5)"><g transform="translate(0,-18)"><path d="M-24 -24 L24 -24 L24 24 L-24 24" stroke="none" stroke-width="0" fill="none"/></g><g class="label" style="" transform="translate(-59.8203125,14)"><rect/><foreignObject width="119.640625" height="28"><div xmlns="http://www.w3.org/1999/xhtml" class="labelBkg" style="display: table-cell; white-space: nowrap; line-height: 1.5; max-width: 200px; text-align: center;"><span class="nodeLabel"><p>Storage Account</p></span></div></foreignObject></g><g><path d="M-59.8203125 -42 L59.8203125 -42 L59.8203125 42 L-59.8203125 42" stroke="none" stroke-width="0" fill="transparent"/></g><g transform="translate(-24.000001311302185,-42.0133318901062)" style="color: #ccc;"><g><svg xmlns="http://www.w3.org/2000/svg" width="48" height="48" viewBox="0 0 18 18"><defs><linearGradient id="IconifyId19d9acd58e12fc14e6" x1="9" x2="9" y1="15.83" y2="5.79" gradientUnits="userSpaceOnUse"><stop offset="0" stop-color="#b3b3b3"/><stop offset=".26" stop-color="#c1c1c1"/><stop offset="1" stop-color="#e6e6e6"/></linearGradient></defs><path fill="url(#IconifyId19d9acd58e12fc14e6)" d="M.5 5.79h17v9.48a.57.57 0 01-.57.57H1.07a.57.57 0 01-.57-.57z"/><path fill="#37c2b1" d="M1.07 2.17h15.86a.57.57 0 01.57.57v3.05H.5V2.73a.57.57 0 01.57-.56"/><path fill="#fff" d="M2.81 6.89h12.37a.27.27 0 01.26.27v1.4a.27.27 0 01-.26.27H2.81a.27.27 0 01-.26-.27v-1.4a.27.27 0 01.26-.27"/><path fill="#37c2b1" d="M2.82 9.68h12.37a.27.27 0 01.26.27v1.41a.27.27 0 01-.26.27H2.82a.27.27 0 01-.26-.27V10a.27.27 0 01.26-.32"/><path fill="#258277" d="M2.82 12.5h12.37a.27.27 0 01.26.27v1.41a.27.27 0 01-.26.27H2.82a.27.27 0 01-.26-.27v-1.41a.27.27 0 01.26-.27"/></svg></g></g></g><g class="node default" id="my-svg-flowchart-alert-13" data-look="classic" transform="translate(520.58203125, 216.5)"><rect class="basic label-container" style="" x="-75.4921875" y="-27" width="150.984375" height="54"/><g class="label" style="" transform="translate(-45.4921875, -12)"><rect/><foreignObject width="90.984375" height="24"><div xmlns="http://www.w3.org/1999/xhtml" style="display: table-cell; white-space: nowrap; line-height: 1.5; max-width: 200px; text-align: center;"><span class="nodeLabel"><p>Metric Alerts</p></span></div></foreignObject></g></g></g></g><g class="root" transform="translate(702.130859375, 0)"><g class="clusters"><g class="cluster" id="my-svg-Network" data-look="classic"><rect style="" x="8" y="8" width="328.234375" height="366"/><g class="cluster-label" transform="translate(142.0859375, 8)"><foreignObject width="60.0625" height="24"><div xmlns="http://www.w3.org/1999/xhtml" style="display: table-cell; white-space: nowrap; line-height: 1.5;"><span class="nodeLabel"><p>Network</p></span></div></foreignObject></g></g></g><g class="edgePaths"><path d="M172.617,130L172.534,136.167C172.451,142.333,172.284,154.667,172.275,166.5C172.266,178.333,172.415,189.667,172.49,195.334L172.565,201" id="my-svg-L_pep_dns_0" class="edge-thickness-normal edge-pattern-solid edge-thickness-normal edge-pattern-solid flowchart-link" style=";" data-edge="true" data-et="edge" data-id="L_pep_dns_0" data-points="W3sieCI6MTcyLjYxNzE4NzUsInkiOjEzMH0seyJ4IjoxNzIuMTE3MTg3NSwieSI6MTY3fSx7IngiOjE3Mi42MTcxODc1LCJ5IjoyMDV9XQ==" data-look="classic" marker-end="url(#my-svg_flowchart-v2-pointEnd)"/></g><g class="edgeLabels"><g class="edgeLabel"><g class="label" data-id="L_pep_dns_0" transform="translate(0, 0)"><foreignObject width="0" height="0"><div xmlns="http://www.w3.org/1999/xhtml" class="labelBkg" style="display: table-cell; white-space: nowrap; line-height: 1.5; max-width: 200px; text-align: center;"><span class="edgeLabel"></span></div></foreignObject></g></g></g><g class="nodes"><g class="icon-shape default" id="my-svg-flowchart-pep-6" data-look="classic" transform="translate(172.1171875, 87.5)"><g transform="translate(0,-18)"><path d="M-24 -24 L24 -24 L24 24 L-24 24" stroke="none" stroke-width="0" fill="none"/></g><g class="label" style="" transform="translate(-61.234375,14)"><rect/><foreignObject width="122.46875" height="28"><div xmlns="http://www.w3.org/1999/xhtml" class="labelBkg" style="display: table-cell; white-space: nowrap; line-height: 1.5; max-width: 200px; text-align: center;"><span class="nodeLabel"><p>Private Endpoint</p></span></div></foreignObject></g><g><path d="M-61.234375 -42 L61.234375 -42 L61.234375 42 L-61.234375 42" stroke="none" stroke-width="0" fill="transparent"/></g><g transform="translate(-23.99800506979227,-42.00298273563385)" style="color: #ccc;"><g><svg xmlns="http://www.w3.org/2000/svg" width="48" height="48" viewBox="0 0 18 18"><defs><linearGradient id="IconifyId19d9acd58e12fc14e7" x1="9.084" x2="9.084" y1="790.967" y2="787.492" gradientTransform="matrix(1 0 0 -1 0 791.516)" gradientUnits="userSpaceOnUse"><stop offset="0" stop-color="#50e6ff"/><stop offset="1" stop-color="#32bedd"/></linearGradient><linearGradient id="IconifyId19d9acd58e12fc14e8" x1="9.065" x2="9.065" y1="13.843" y2="10.368" gradientUnits="userSpaceOnUse"><stop offset="0" stop-color="#5e9624"/><stop offset=".183" stop-color="#629c25"/><stop offset=".435" stop-color="#6dae2a"/><stop offset=".726" stop-color="#7fcb30"/><stop offset=".822" stop-color="#86d633"/></linearGradient></defs><path fill="#b3b3b3" d="M7.85 13.342a1.738 1.738 0 102.436-2.479 1.7 1.7 0 00-.626-.389V3.009H8.548v7.444a1.73 1.73 0 00-.7 2.891Z"/><circle cx="9.084" cy="2.209" r="1.738" fill="url(#IconifyId19d9acd58e12fc14e7)"/><path fill="#50e6ff" d="m6.195 16.778-.662.664a.3.3 0 01-.424 0L.217 12.564a.6.6 0 01-.001-.849l.661-.663 5.317 5.302a.3.3 0 010 .424"/><path fill="#1490df" d="m5.436 6.885.663.662a.3.3 0 010 .424l-5.224 5.24-.665-.662a.6.6 0 010-.849l4.8-4.815a.3.3 0 01.426 0"/><path fill="#50e6ff" d="m17.121 11.052.662.664a.6.6 0 01-.001.848l-4.892 4.879a.3.3 0 01-.425 0l-.661-.664a.3.3 0 010-.425z"/><path fill="#1490df" d="m17.788 12.548-.663.662L11.9 7.97a.3.3 0 010-.424l.664-.662a.3.3 0 01.424 0L17.79 11.7a.6.6 0 01-.002.848"/><circle cx="9.065" cy="12.106" r="1.738" fill="url(#IconifyId19d9acd58e12fc14e8)"/></svg></g></g></g><g class="icon-shape default" id="my-svg-flowchart-dns-9" data-look="classic" transform="translate(172.1171875, 270.5)"><g transform="translate(0,-42)"><path d="M-24 -24 L24 -24 L24 24 L-24 24" stroke="none" stroke-width="0" fill="none"/></g><g class="label" style="" transform="translate(-129.1171875,-10)"><rect/><foreignObject width="258.234375" height="76"><div xmlns="http://www.w3.org/1999/xhtml" class="labelBkg" style="display: table; white-space: break-spaces; line-height: 1.5; max-width: 200px; text-align: center; width: 200px;"><span class="nodeLabel"><p>Private DNS Zone<br />          privatelink.servicebus.windows.net</p></span></div></foreignObject></g><g><path d="M-129.1171875 -66 L129.1171875 -66 L129.1171875 66 L-129.1171875 66" stroke="none" stroke-width="0" fill="transparent"/></g><g transform="translate(-23.948599576950073,-66.04620921611786)" style="color: #ccc;"><g><svg xmlns="http://www.w3.org/2000/svg" width="48" height="48" viewBox="0 0 18 18"><defs><radialGradient id="IconifyId19d9acd58e12fc14e9" cx="-6811.4" cy="6729.69" r="17" gradientTransform="matrix(.5 0 0 -.5 3414.91 3374.05)" gradientUnits="userSpaceOnUse"><stop offset=".18" stop-color="#5ea0ef"/><stop offset="1" stop-color="#0078d4"/></radialGradient></defs><path fill="url(#IconifyId19d9acd58e12fc14e9)" d="M14.21 15.72A8.5 8.5 0 013.79 2.28l.09-.06a8.5 8.5 0 0110.33 13.5"/><path fill="#5ea0ef" d="M9 1.31A7.69 7.69 0 1016.69 9 7.7 7.7 0 009 1.31m5.15 2.59a7.4 7.4 0 01-2.15.8A8.8 8.8 0 0010.75 2a7.2 7.2 0 013.4 1.9M9 1.74a6.6 6.6 0 011.09.09 7.5 7.5 0 011.53 3 15.1 15.1 0 01-5.45 0 7.4 7.4 0 011.51-2.94A7.3 7.3 0 019 1.74M7 2a8.7 8.7 0 00-1.27 2.68 5.6 5.6 0 01-1.9-.77A7.35 7.35 0 017 2M3.72 14a5.3 5.3 0 011.78-.76 7.1 7.1 0 001.35 2.72A7.25 7.25 0 013.72 14m6.41 2.2a7 7 0 01-1.13.06 7 7 0 01-1.44-.15 6 6 0 01-1.67-3 14.7 14.7 0 015.88 0 6 6 0 01-1.69 3Zm.73-.16a7.1 7.1 0 001.38-2.8 6.7 6.7 0 012 .83A7.13 7.13 0 0110.86 16Zm1.48-3.22c.08-.36.15-.73.2-1.12l-.46.11c-.05.31-.1.62-.17.91a15.2 15.2 0 00-6.09 0c-.07-.27-.12-.56-.17-.86a.3.3 0 010-.09l-.46-.13a2 2 0 000 .28c0 .32.11.62.17.91a5.9 5.9 0 00-2 .85 7.24 7.24 0 01.11-9.4 6.3 6.3 0 002.08.86c-.07.24-.13.5-.18.76s0 .25-.08.37l.47-.11v-.17c.06-.26.12-.51.19-.75A15 15 0 009 5.48a15 15 0 002.78-.26c.07.27.14.56.2.85l.46.11q-.11-.54-.24-1a7.7 7.7 0 002.3-.91 7.22 7.22 0 01.06 9.49 7.3 7.3 0 00-2.22-.97Z"/><path fill="#fff" d="M3.69 7a8 8 0 011.16-.08 2.44 2.44 0 011.71.52 2 2 0 01.59 1.46 2.2 2.2 0 01-.61 1.64 2.6 2.6 0 01-1.86.61 9 9 0 01-1-.05Zm.55 3.73a4 4 0 00.55 0 1.62 1.62 0 001.79-1.81A1.5 1.5 0 004.87 7.3a3 3 0 00-.63 0Zm3.62.38V6.9h.59L9.8 9a12 12 0 01.76 1.37c-.05-.56-.06-1.07-.06-1.73V6.9h.5v4.21h-.55L9.13 9c-.29-.47-.57-1-.79-1.4v3.54Zm4.03-.66a2 2 0 001 .27c.56 0 .88-.29.88-.72s-.22-.62-.79-.83-1.12-.6-1.12-1.2a1.22 1.22 0 011.37-1.14 2 2 0 01.93.2l-.16.45a1.63 1.63 0 00-.8-.2c-.58 0-.8.34-.8.63s.26.59.84.81 1.08.62 1.08 1.24-.48 1.21-1.48 1.21a2.16 2.16 0 01-1.07-.27Z"/></svg></g></g></g></g></g><g class="root" transform="translate(0, 163)"><g class="clusters"><g class="cluster" id="my-svg-Messaging" data-look="classic"><rect style="" x="8" y="8" width="504.7109375" height="417"/><g class="cluster-label" transform="translate(223.76953125, 8)"><foreignObject width="73.171875" height="24"><div xmlns="http://www.w3.org/1999/xhtml" style="display: table-cell; white-space: nowrap; line-height: 1.5;"><span class="nodeLabel"><p>Event Hub</p></span></div></foreignObject></g></g></g><g class="edgePaths"><path d="M257.578,130L257.495,136.167C257.411,142.333,257.245,154.667,257.161,166.417C257.078,178.167,257.078,189.333,257.078,194.917L257.078,200.5" id="my-svg-L_ns_hub_0" class="edge-thickness-normal edge-pattern-solid edge-thickness-normal edge-pattern-solid flowchart-link" style=";" data-edge="true" data-et="edge" data-id="L_ns_hub_0" data-points="W3sieCI6MjU3LjU3ODEyNSwieSI6MTMwfSx7IngiOjI1Ny4wNzgxMjUsInkiOjE2N30seyJ4IjoyNTcuMDc4MTI1LCJ5IjoyMDQuNX1d" data-look="classic" marker-end="url(#my-svg_flowchart-v2-pointEnd)"/><path d="M206.414,258.5L194.686,264.75C182.958,271,159.503,283.5,147.775,295.333C136.047,307.167,136.047,318.333,136.047,323.917L136.047,329.5" id="my-svg-L_hub_cg_0" class="edge-thickness-normal edge-pattern-solid edge-thickness-normal edge-pattern-solid flowchart-link" style=";" data-edge="true" data-et="edge" data-id="L_hub_cg_0" data-points="W3sieCI6MjA2LjQxMzg4MDgxMzk1MzQ4LCJ5IjoyNTguNX0seyJ4IjoxMzYuMDQ2ODc1LCJ5IjoyOTZ9LHsieCI6MTM2LjA0Njg3NSwieSI6MzMzLjV9XQ==" data-look="classic" marker-end="url(#my-svg_flowchart-v2-pointEnd)"/><path d="M307.742,258.5L319.47,264.75C331.198,271,354.654,283.5,366.382,295.333C378.109,307.167,378.109,318.333,378.109,323.917L378.109,329.5" id="my-svg-L_hub_auth_0" class="edge-thickness-normal edge-pattern-solid edge-thickness-normal edge-pattern-solid flowchart-link" style=";" data-edge="true" data-et="edge" data-id="L_hub_auth_0" data-points="W3sieCI6MzA3Ljc0MjM2OTE4NjA0NjUsInkiOjI1OC41fSx7IngiOjM3OC4xMDkzNzUsInkiOjI5Nn0seyJ4IjozNzguMTA5Mzc1LCJ5IjozMzMuNX1d" data-look="classic" marker-end="url(#my-svg_flowchart-v2-pointEnd)"/></g><g class="edgeLabels"><g class="edgeLabel"><g class="label" data-id="L_ns_hub_0" transform="translate(0, 0)"><foreignObject width="0" height="0"><div xmlns="http://www.w3.org/1999/xhtml" class="labelBkg" style="display: table-cell; white-space: nowrap; line-height: 1.5; max-width: 200px; text-align: center;"><span class="edgeLabel"></span></div></foreignObject></g></g><g class="edgeLabel"><g class="label" data-id="L_hub_cg_0" transform="translate(0, 0)"><foreignObject width="0" height="0"><div xmlns="http://www.w3.org/1999/xhtml" class="labelBkg" style="display: table-cell; white-space: nowrap; line-height: 1.5; max-width: 200px; text-align: center;"><span class="edgeLabel"></span></div></foreignObject></g></g><g class="edgeLabel"><g class="label" data-id="L_hub_auth_0" transform="translate(0, 0)"><foreignObject width="0" height="0"><div xmlns="http://www.w3.org/1999/xhtml" class="labelBkg" style="display: table-cell; white-space: nowrap; line-height: 1.5; max-width: 200px; text-align: center;"><span class="edgeLabel"></span></div></foreignObject></g></g></g><g class="nodes"><g class="icon-shape default" id="my-svg-flowchart-ns-0" data-look="classic" transform="translate(257.078125, 87.5)"><g transform="translate(0,-18)"><path d="M-24 -24 L24 -24 L24 24 L-24 24" stroke="none" stroke-width="0" fill="none"/></g><g class="label" style="" transform="translate(-81.53125,14)"><rect/><foreignObject width="163.0625" height="28"><div xmlns="http://www.w3.org/1999/xhtml" class="labelBkg" style="display: table-cell; white-space: nowrap; line-height: 1.5; max-width: 200px; text-align: center;"><span class="nodeLabel"><p>Event Hub Namespace</p></span></div></foreignObject></g><g><path d="M-81.53125 -42 L81.53125 -42 L81.53125 42 L-81.53125 42" stroke="none" stroke-width="0" fill="transparent"/></g><g transform="translate(-24.000001311302185,-42.21333122253418)" style="color: #ccc;"><g><svg xmlns="http://www.w3.org/2000/svg" width="48" height="48" viewBox="0 0 18 18"><defs><path id="IconifyId19d9acd58e12fc14e2" d="M1.07 1.51h1.29v3.6a.29.29 0 01-.29.29H.79a.29.29 0 01-.29-.29v-3a.57.57 0 01.57-.6"/><path id="IconifyId19d9acd58e12fc14e3" d="M15.64 1.51h1.29a.57.57 0 01.57.57v3a.29.29 0 01-.29.29h-1.29a.29.29 0 01-.29-.29V1.51z"/><path id="IconifyId19d9acd58e12fc14e4" d="M.79 12.76h1.29a.29.29 0 01.29.29v3.6h-1.3a.57.57 0 01-.57-.57V13a.29.29 0 01.29-.24"/><path id="IconifyId19d9acd58e12fc14e5" d="M15.92 12.76h1.29a.29.29 0 01.29.29v3a.57.57 0 01-.57.57h-1.29V13a.29.29 0 01.28-.24"/></defs><path fill="#76bc2d" d="M10.83 8.42a.26.26 0 01-.24.27H8.5a.26.26 0 01-.27-.24V6.89a.26.26 0 01.24-.27h2.09a.26.26 0 01.27.24zM14.54 10a.26.26 0 01-.24.27h-2.09a.26.26 0 01-.27-.24V8.48a.26.26 0 01.24-.27h2.09a.26.26 0 01.27.24zm-3.71 1.6a.26.26 0 01-.24.27H8.5a.26.26 0 01-.27-.24v-1.56a.26.26 0 01.24-.27h2.09a.26.26 0 01.27.24z"/><path fill="#86d633" d="M7.12 6.84a.25.25 0 01-.23.26H4.74a.26.26 0 01-.27-.23V5.25A.26.26 0 014.71 5H6.8c.22 0 .32.11.32.27Z"/><path fill="#76bc2d" d="M7.12 10a.25.25 0 01-.23.27H4.74a.26.26 0 01-.27-.27V8.42a.26.26 0 01.24-.26H6.8c.22 0 .32.11.32.26Zm0 3.19a.25.25 0 01-.23.27H4.74a.26.26 0 01-.27-.24V11.6a.25.25 0 01.24-.26H6.8c.22 0 .32.1.32.26Z"/><g fill="#999"/><g fill="#999"/><path fill="#949494" d="M17.5 2.08v1.25H.5V2.08a.57.57 0 01.57-.57h15.87a.57.57 0 01.56.57"/><g fill="#999"/><g fill="#999"/><path fill="#949494" d="M.5 16.08v-1.25h17v1.25a.57.57 0 01-.57.57H1.07a.57.57 0 01-.57-.57"/></svg></g></g></g><g class="node default" id="my-svg-flowchart-hub-3" data-look="classic" transform="translate(257.078125, 231.5)"><rect class="basic label-container" style="" x="-93.6328125" y="-27" width="187.265625" height="54"/><g class="label" style="" transform="translate(-63.6328125, -12)"><rect/><foreignObject width="127.265625" height="24"><div xmlns="http://www.w3.org/1999/xhtml" style="display: table-cell; white-space: nowrap; line-height: 1.5; max-width: 200px; text-align: center;"><span class="nodeLabel"><p>Event Hubs topics</p></span></div></foreignObject></g></g><g class="node default" id="my-svg-flowchart-cg-4" data-look="classic" transform="translate(136.046875, 360.5)"><rect class="basic label-container" style="" x="-92.4609375" y="-27" width="184.921875" height="54"/><g class="label" style="" transform="translate(-62.4609375, -12)"><rect/><foreignObject width="124.921875" height="24"><div xmlns="http://www.w3.org/1999/xhtml" style="display: table-cell; white-space: nowrap; line-height: 1.5; max-width: 200px; text-align: center;"><span class="nodeLabel"><p>Consumer Groups</p></span></div></foreignObject></g></g><g class="node default" id="my-svg-flowchart-auth-5" data-look="classic" transform="translate(378.109375, 360.5)"><rect class="basic label-container" style="" x="-99.6015625" y="-27" width="199.203125" height="54"/><g class="label" style="" transform="translate(-69.6015625, -12)"><rect/><foreignObject width="139.203125" height="24"><div xmlns="http://www.w3.org/1999/xhtml" style="display: table-cell; white-space: nowrap; line-height: 1.5; max-width: 200px; text-align: center;"><span class="nodeLabel"><p>Authorization Rules</p></span></div></foreignObject></g></g></g></g></g></g></g><defs><filter id="my-svg-drop-shadow" height="130%" width="130%"><feDropShadow dx="4" dy="4" stdDeviation="0" flood-opacity="0.06" flood-color="#FFFFFF"/></filter></defs><defs><filter id="my-svg-drop-shadow-small" height="150%" width="150%"><feDropShadow dx="2" dy="2" stdDeviation="0" flood-opacity="0.06" flood-color="#FFFFFF"/></filter></defs><linearGradient id="my-svg-gradient" gradientUnits="objectBoundingBox" x1="0%" y1="0%" x2="100%" y2="0%"><stop offset="0%" stop-color="#cccccc" stop-opacity="1"/><stop offset="100%" stop-color="hsl(180, 0%, 18.3529411765%)" stop-opacity="1"/></linearGradient></svg>