<svg id="my-svg" width="100%" xmlns="http://www.w3.org/2000/svg" xmlns:xlink="http://www.w3.org/1999/xlink" class="flowchart" style="max-width: 540.156px; background-color: transparent;" viewBox="0 0 540.15625 170" role="graphics-document document" aria-roledescription="flowchart-v2"><style>#my-svg{font-family:"trebuchet ms",verdana,arial,sans-serif;font-size:16px;fill:#ccc;}@keyframes edge-animation-frame{from{stroke-dashoffset:0;}}@keyframes dash{to{stroke-dashoffset:0;}}#my-svg .edge-animation-slow{stroke-dasharray:9,5!important;stroke-dashoffset:900;animation:dash 50s linear infinite;stroke-linecap:round;}#my-svg .edge-animation-fast{stroke-dasharray:9,5!important;stroke-dashoffset:900;animation:dash 20s linear infinite;stroke-linecap:round;}#my-svg .error-icon{fill:#a44141;}#my-svg .error-text{fill:#ddd;stroke:#ddd;}#my-svg .edge-thickness-normal{stroke-width:1px;}#my-svg .edge-thickness-thick{stroke-width:3.5px;}#my-svg .edge-pattern-solid{stroke-dasharray:0;}#my-svg .edge-thickness-invisible{stroke-width:0;fill:none;}#my-svg .edge-pattern-dashed{stroke-dasharray:3;}#my-svg .edge-pattern-dotted{stroke-dasharray:2;}#my-svg .marker{fill:lightgrey;stroke:lightgrey;}#my-svg .marker.cross{stroke:lightgrey;}#my-svg svg{font-family:"trebuchet ms",verdana,arial,sans-serif;font-size:16px;}#my-svg p{margin:0;}#my-svg .label{font-family:"trebuchet ms",verdana,arial,sans-serif;color:#ccc;}#my-svg .cluster-label text{fill:#F9FFFE;}#my-svg .cluster-label span{color:#F9FFFE;}#my-svg .cluster-label span p{background-color:transparent;}#my-svg .label text,#my-svg span{fill:#ccc;color:#ccc;}#my-svg .node rect,#my-svg .node circle,#my-svg .node ellipse,#my-svg .node polygon,#my-svg .node path{fill:#1f2020;stroke:#ccc;stroke-width:1px;}#my-svg .rough-node .label text,#my-svg .node .label text,#my-svg .image-shape .label,#my-svg .icon-shape .label{text-anchor:middle;}#my-svg .node .katex path{fill:#000;stroke:#000;stroke-width:1px;}#my-svg .rough-node .label,#my-svg .node .label,#my-svg .image-shape .label,#my-svg .icon-shape .label{text-align:center;}#my-svg .node.clickable{cursor:pointer;}#my-svg .root .anchor path{fill:lightgrey!important;stroke-width:0;stroke:lightgrey;}#my-svg .arrowheadPath{fill:lightgrey;}#my-svg .edgePath .path{stroke:lightgrey;stroke-width:1px;}#my-svg .flowchart-link{stroke:lightgrey;fill:none;}#my-svg .edgeLabel{background-color:hsl(0, 0%, 34.4117647059%);text-align:center;}#my-svg .edgeLabel p{background-color:hsl(0, 0%, 34.4117647059%);}#my-svg .edgeLabel rect{opacity:0.5;background-color:hsl(0, 0%, 34.4117647059%);fill:hsl(0, 0%, 34.4117647059%);}#my-svg .labelBkg{background-color:rgba(87.75, 87.75, 87.75, 0.5);}#my-svg .cluster rect{fill:hsl(180, 1.5873015873%, 28.3529411765%);stroke:rgba(255, 255, 255, 0.25);stroke-width:1px;}#my-svg .cluster text{fill:#F9FFFE;}#my-svg .cluster span{color:#F9FFFE;}#my-svg div.mermaidTooltip{position:absolute;text-align:center;max-width:200px;padding:2px;font-family:"trebuchet ms",verdana,arial,sans-serif;font-size:12px;background:hsl(20, 1.5873015873%, 12.3529411765%);border:1px solid rgba(255, 255, 255, 0.25);border-radius:2px;pointer-events:none;z-index:100;}#my-svg .flowchartTitleText{text-anchor:middle;font-size:18px;fill:#ccc;}#my-svg rect.text{fill:none;stroke-width:0;}#my-svg .icon-shape,#my-svg .image-shape{background-color:hsl(0, 0%, 34.4117647059%);text-align:center;}#my-svg .icon-shape p,#my-svg .image-shape p{background-color:hsl(0, 0%, 34.4117647059%);padding:2px;}#my-svg .icon-shape .label rect,#my-svg .image-shape .label rect{opacity:0.5;background-color:hsl(0, 0%, 34.4117647059%);fill:hsl(0, 0%, 34.4117647059%);}#my-svg .label-icon{display:inline-block;height:1em;overflow:visible;vertical-align:-0.125em;}#my-svg .node .label-icon path{fill:currentColor;stroke:revert;stroke-width:revert;}#my-svg .node .neo-node{stroke:#ccc;}#my-svg [data-look="neo"].node rect,#my-svg [data-look="neo"].cluster rect,#my-svg [data-look="neo"].node polygon{stroke:url(#my-svg-gradient);filter:drop-shadow( 1px 2px 2px rgba(185,185,185,1));}#my-svg [data-look="neo"].swimlane.cluster rect{filter:none;}#my-svg [data-look="neo"].node path{stroke:url(#my-svg-gradient);stroke-width:1px;}#my-svg [data-look="neo"].node .outer-path{filter:drop-shadow( 1px 2px 2px rgba(185,185,185,1));}#my-svg [data-look="neo"].node .neo-line path{stroke:#ccc;filter:none;}#my-svg [data-look="neo"].node circle{stroke:url(#my-svg-gradient);filter:drop-shadow( 1px 2px 2px rgba(185,185,185,1));}#my-svg [data-look="neo"].node circle .state-start{fill:#000000;}#my-svg [data-look="neo"].icon-shape .icon{fill:url(#my-svg-gradient);filter:drop-shadow( 1px 2px 2px rgba(185,185,185,1));}#my-svg [data-look="neo"].icon-shape .icon-neo path{stroke:url(#my-svg-gradient);filter:drop-shadow( 1px 2px 2px rgba(185,185,185,1));}#my-svg :root{--mermaid-font-family:"trebuchet ms",verdana,arial,sans-serif;}</style><g><marker id="my-svg_flowchart-v2-pointEnd" class="marker flowchart-v2" viewBox="0 0 10 10" refX="5" refY="5" markerUnits="userSpaceOnUse" markerWidth="8" markerHeight="8" orient="auto"><path d="M 0 0 L 10 5 L 0 10 z" class="arrowMarkerPath" style="stroke-width: 1; stroke-dasharray: 1, 0;"/></marker><marker id="my-svg_flowchart-v2-pointStart" class="marker flowchart-v2" viewBox="0 0 10 10" refX="4.5" refY="5" markerUnits="userSpaceOnUse" markerWidth="8" markerHeight="8" orient="auto"><path d="M 0 5 L 10 10 L 10 0 z" class="arrowMarkerPath" style="stroke-width: 1; stroke-dasharray: 1, 0;"/></marker><marker id="my-svg_flowchart-v2-pointEnd-margin" class="marker flowchart-v2" viewBox="0 0 11.5 14" refX="11.5" refY="7" markerUnits="userSpaceOnUse" markerWidth="10.5" markerHeight="14" orient="auto"><path d="M 0 0 L 11.5 7 L 0 14 z" class="arrowMarkerPath" style="stroke-width: 0; stroke-dasharray: 1, 0;"/></marker><marker id="my-svg_flowchart-v2-pointStart-margin" class="marker flowchart-v2" viewBox="0 0 11.5 14" refX="1" refY="7" markerUnits="userSpaceOnUse" markerWidth="11.5" markerHeight="14" orient="auto"><polygon points="0,7 11.5,14 11.5,0" class="arrowMarkerPath" style="stroke-width: 0; stroke-dasharray: 1, 0;"/></marker><marker id="my-svg_flowchart-v2-circleEnd" class="marker flowchart-v2" viewBox="0 0 10 10" refX="11" refY="5" markerUnits="userSpaceOnUse" markerWidth="11" markerHeight="11" orient="auto"><circle cx="5" cy="5" r="5" class="arrowMarkerPath" style="stroke-width: 1; stroke-dasharray: 1, 0;"/></marker><marker id="my-svg_flowchart-v2-circleStart" class="marker flowchart-v2" viewBox="0 0 10 10" refX="-1" refY="5" markerUnits="userSpaceOnUse" markerWidth="11" markerHeight="11" orient="auto"><circle cx="5" cy="5" r="5" class="arrowMarkerPath" style="stroke-width: 1; stroke-dasharray: 1, 0;"/></marker><marker id="my-svg_flowchart-v2-circleEnd-margin" class="marker flowchart-v2" viewBox="0 0 10 10" refY="5" refX="12.25" markerUnits="userSpaceOnUse" markerWidth="14" markerHeight="14" orient="auto"><circle cx="5" cy="5" r="5" class="arrowMarkerPath" style="stroke-width: 0; stroke-dasharray: 1, 0;"/></marker><marker id="my-svg_flowchart-v2-circleStart-margin" class="marker flowchart-v2" viewBox="0 0 10 10" refX="-2" refY="5" markerUnits="userSpaceOnUse" markerWidth="14" markerHeight="14" orient="auto"><circle cx="5" cy="5" r="5" class="arrowMarkerPath" style="stroke-width: 0; stroke-dasharray: 1, 0;"/></marker><marker id="my-svg_flowchart-v2-crossEnd" class="marker cross flowchart-v2" viewBox="0 0 11 11" refX="12" refY="5.2" markerUnits="userSpaceOnUse" markerWidth="11" markerHeight="11" orient="auto"><path d="M 1,1 l 9,9 M 10,1 l -9,9" class="arrowMarkerPath" style="stroke-width: 2; stroke-dasharray: 1, 0;"/></marker><marker id="my-svg_flowchart-v2-crossStart" class="marker cross flowchart-v2" viewBox="0 0 11 11" refX="-1" refY="5.2" markerUnits="userSpaceOnUse" markerWidth="11" markerHeight="11" orient="auto"><path d="M 1,1 l 9,9 M 10,1 l -9,9" class="arrowMarkerPath" style="stroke-width: 2; stroke-dasharray: 1, 0;"/></marker><marker id="my-svg_flowchart-v2-crossEnd-margin" class="marker cross flowchart-v2" viewBox="0 0 15 15" refX="17.7" refY="7.5" markerUnits="userSpaceOnUse" markerWidth="12" markerHeight="12" orient="auto"><path d="M 1,1 L 14,14 M 1,14 L 14,1" class="arrowMarkerPath" style="stroke-width: 2.5;"/></marker><marker id="my-svg_flowchart-v2-crossStart-margin" class="marker cross flowchart-v2" viewBox="0 0 15 15" refX="-3.5" refY="7.5" markerUnits="userSpaceOnUse" markerWidth="12" markerHeight="12" orient="auto"><path d="M 1,1 L 14,14 M 1,14 L 14,1" class="arrowMarkerPath" style="stroke-width: 2.5; stroke-dasharray: 1, 0;"/></marker><g class="root"><g class="clusters"/><g class="edgePaths"/><g class="edgeLabels"/><g class="nodes"><g class="root" transform="translate(0, 0)"><g class="clusters"><g class="cluster" id="my-svg-Compute" data-look="classic"><rect style="" x="8" y="8" width="524.15625" height="154"/><g class="cluster-label" transform="translate(215.9140625, 8)"><foreignObject width="108.328125" height="24"><div xmlns="http://www.w3.org/1999/xhtml" style="display: table-cell; white-space: nowrap; line-height: 1.5;"><span class="nodeLabel"><p>Compute Layer</p></span></div></foreignObject></g></g></g><g class="edgePaths"><path d="M131.695,85.5L144.145,85.417C156.594,85.333,181.492,85.167,202.923,85.161C224.354,85.155,242.318,85.31,251.3,85.388L260.281,85.465" id="my-svg-L_asp_app_0" class="edge-thickness-normal edge-pattern-solid edge-thickness-normal edge-pattern-solid flowchart-link" style=";" data-edge="true" data-et="edge" data-id="L_asp_app_0" data-points="W3sieCI6MTMxLjY5NTMxMjUsInkiOjg1LjV9LHsieCI6MjA2LjM5MDYyNSwieSI6ODV9LHsieCI6MjY0LjI4MTI1LCJ5Ijo4NS41fV0=" data-look="classic" marker-end="url(#my-svg_flowchart-v2-pointEnd)"/><path d="M312.281,85.5L321.763,85.417C331.245,85.333,350.208,85.167,368.689,85.161C387.169,85.155,405.167,85.31,414.165,85.388L423.164,85.466" id="my-svg-L_app_slot_0" class="edge-thickness-normal edge-pattern-dotted edge-thickness-normal edge-pattern-solid flowchart-link" style=";" data-edge="true" data-et="edge" data-id="L_app_slot_0" data-points="W3sieCI6MzEyLjI4MTI1LCJ5Ijo4NS41fSx7IngiOjM2OS4xNzE4NzUsInkiOjg1fSx7IngiOjQyNy4xNjQwNjI1LCJ5Ijo4NS41fV0=" data-look="classic" marker-end="url(#my-svg_flowchart-v2-pointEnd)"/></g><g class="edgeLabels"><g class="edgeLabel"><g class="label" data-id="L_asp_app_0" transform="translate(0, 0)"><foreignObject width="0" height="0"><div xmlns="http://www.w3.org/1999/xhtml" class="labelBkg" style="display: table-cell; white-space: nowrap; line-height: 1.5; max-width: 200px; text-align: center;"><span class="edgeLabel"></span></div></foreignObject></g></g><g class="edgeLabel"><g class="label" data-id="L_app_slot_0" transform="translate(0, 0)"><foreignObject width="0" height="0"><div xmlns="http://www.w3.org/1999/xhtml" class="labelBkg" style="display: table-cell; white-space: nowrap; line-height: 1.5; max-width: 200px; text-align: center;"><span class="edgeLabel"></span></div></foreignObject></g></g></g><g class="nodes"><g class="icon-shape default" id="my-svg-flowchart-asp-0" data-look="classic" transform="translate(107.1953125, 85)"><g transform="translate(0,-18)"><path d="M-24 -24 L24 -24 L24 24 L-24 24" stroke="none" stroke-width="0" fill="none"/></g><g class="label" style="" transform="translate(-61.6953125,14)"><rect/><foreignObject width="123.390625" height="28"><div xmlns="http://www.w3.org/1999/xhtml" class="labelBkg" style="display: table-cell; white-space: nowrap; line-height: 1.5; max-width: 200px; text-align: center;"><span class="nodeLabel"><p>App Service Plan</p></span></div></foreignObject></g><g><path d="M-61.6953125 -42 L61.6953125 -42 L61.6953125 42 L-61.6953125 42" stroke="none" stroke-width="0" fill="transparent"/></g><g transform="translate(-24,-42)" style="color: #ccc;"><g><svg xmlns="http://www.w3.org/2000/svg" width="48" height="48" viewBox="0 0 18 18"><defs><linearGradient id="IconifyId19f3cd882dee7b7150" x1="5.57" x2="5.57" y1="17.5" y2=".5" gradientUnits="userSpaceOnUse"><stop offset=".05" stop-color="#949494"/><stop offset=".36" stop-color="#979797"/><stop offset=".54" stop-color="#9f9f9f"/><stop offset=".69" stop-color="#adadad"/><stop offset=".73" stop-color="#b3b3b3"/></linearGradient><linearGradient id="IconifyId19f3cd882dee7b7151" x1="10.56" x2="10.56" y1="6.02" y2="19.71" gradientUnits="userSpaceOnUse"><stop offset=".18" stop-color="#5ea0ef"/><stop offset="1" stop-color="#0078d4"/></linearGradient></defs><path fill="url(#IconifyId19f3cd882dee7b7150)" d="M10.56 16.93a.56.56 0 01-.57.57H1.14a.56.56 0 01-.56-.57V1.07A.56.56 0 011.14.5H10a.56.56 0 01.57.57Z"/><path fill="#003067" d="M2 6.46a1.08 1.08 0 011.13-1.08h5a1.08 1.08 0 011.05 1.08A1.08 1.08 0 018.1 7.55h-5A1.09 1.09 0 012 6.46m0-3.22a1.09 1.09 0 011.13-1.09h5a1.08 1.08 0 011.05 1.09A1.08 1.08 0 018.1 4.32h-5A1.08 1.08 0 012 3.24"/><circle cx="3.17" cy="3.24" r=".73" fill="#50e6ff"/><circle cx="3.17" cy="6.46" r=".73" fill="#50e6ff"/><path fill="url(#IconifyId19f3cd882dee7b7151)" d="M17.42 14.38a3.12 3.12 0 00-2.67-3 3.93 3.93 0 00-4-3.8 4 4 0 00-3.83 2.66 3.7 3.7 0 00-3.22 3.59 3.77 3.77 0 003.86 3.67h6.77a3.15 3.15 0 003.09-3.12"/><path fill="none" d="M0 0h18v18H0z"/></svg></g></g></g><g class="icon-shape default" id="my-svg-flowchart-app-3" data-look="classic" transform="translate(287.78125, 85)"><g transform="translate(0,-18)"><path d="M-24 -24 L24 -24 L24 24 L-24 24" stroke="none" stroke-width="0" fill="none"/></g><g class="label" style="" transform="translate(-43.890625,14)"><rect/><foreignObject width="87.78125" height="28"><div xmlns="http://www.w3.org/1999/xhtml" class="labelBkg" style="display: table-cell; white-space: nowrap; line-height: 1.5; max-width: 200px; text-align: center;"><span class="nodeLabel"><p>App Service</p></span></div></foreignObject></g><g><path d="M-43.890625 -42 L43.890625 -42 L43.890625 42 L-43.890625 42" stroke="none" stroke-width="0" fill="transparent"/></g><g transform="translate(-23.948599576950073,-42.04620921611786)" style="color: #ccc;"><g><svg xmlns="http://www.w3.org/2000/svg" width="48" height="48" viewBox="0 0 18 18"><defs><linearGradient id="IconifyId19f3cd882dee7b7152" x1="4.4" x2="4.37" y1="11.48" y2="7.53" gradientUnits="userSpaceOnUse"><stop offset="0" stop-color="#ccc"/><stop offset="1" stop-color="#fcfcfc"/></linearGradient><linearGradient id="IconifyId19f3cd882dee7b7153" x1="10.13" x2="10.13" y1="15.45" y2="11.9" gradientUnits="userSpaceOnUse"><stop offset="0" stop-color="#ccc"/><stop offset="1" stop-color="#fcfcfc"/></linearGradient><linearGradient id="IconifyId19f3cd882dee7b7154" x1="14.18" x2="14.18" y1="11.15" y2="7.38" gradientUnits="userSpaceOnUse"><stop offset="0" stop-color="#ccc"/><stop offset="1" stop-color="#fcfcfc"/></linearGradient><radialGradient id="IconifyId19f3cd882dee7b7155" cx="13428.81" cy="3518.86" r="56.67" gradientTransform="matrix(.15 0 0 .15 -2005.33 -518.83)" gradientUnits="userSpaceOnUse"><stop offset=".18" stop-color="#5ea0ef"/><stop offset="1" stop-color="#0078d4"/></radialGradient></defs><path fill="url(#IconifyId19f3cd882dee7b7155)" d="M14.21 15.72A8.5 8.5 0 013.79 2.28l.09-.06a8.5 8.5 0 0110.33 13.5"/><path fill="#fff" d="M6.69 7.23a13 13 0 018.91-3.58 8.5 8.5 0 00-1.49-1.44 14.3 14.3 0 00-4.69 1.1 12.5 12.5 0 00-4.08 2.82 2.76 2.76 0 011.35 1.1m-4.21 3.42a18 18 0 00-.83 2.62 8 8 0 00.62.92c.18.23.35.44.55.65a18 18 0 011.08-3.47 2.76 2.76 0 01-1.42-.72" opacity=".6"/><path fill="#f2f2f2" d="M3.46 6.11a12 12 0 01-.69-2.94 8 8 0 00-1.1 1.45A12.7 12.7 0 002.24 7a2.7 2.7 0 011.22-.89" opacity=".55"/><circle cx="4.38" cy="8.68" r="2.73" fill="url(#IconifyId19f3cd882dee7b7152)"/><path fill="#f2f2f2" d="M8.36 13.67a1.77 1.77 0 01.54-1.27 12 12 0 01-2.53-1.86 2.74 2.74 0 01-1.49.83 13 13 0 001.45 1.28 12 12 0 002.05 1.25 2 2 0 01-.02-.23m6.3.21a12 12 0 01-2.76-.32.4.4 0 010 .11 1.75 1.75 0 01-.51 1.24 13.7 13.7 0 003.42.24A8.2 8.2 0 0016 13.81a12 12 0 01-1.34.07" opacity=".55"/><circle cx="10.13" cy="13.67" r="1.78" fill="url(#IconifyId19f3cd882dee7b7153)"/><path fill="#f2f2f2" d="M12.32 8.93a1.83 1.83 0 01.61-1 25.5 25.5 0 01-4.46-4.14 17 17 0 01-2-2.92 7.6 7.6 0 00-1.09.42 18 18 0 002.15 3.18 26.4 26.4 0 004.79 4.46" opacity=".7"/><circle cx="14.18" cy="9.27" r="1.89" fill="url(#IconifyId19f3cd882dee7b7154)"/><path fill="#f2f2f2" d="m17.35 10.54-.35-.17-.3-.16h-.06l-.26-.21h-.07L16 9.8a1.76 1.76 0 01-.64.92c.12.08.25.15.38.22l.08.05.35.19.86.45a9 9 0 00.29-1.11Z" opacity=".55"/><circle cx="4.38" cy="8.68" r="2.73" fill="url(#IconifyId19f3cd882dee7b7152)"/><circle cx="10.13" cy="13.67" r="1.78" fill="url(#IconifyId19f3cd882dee7b7153)"/></svg></g></g></g><g class="icon-shape default" id="my-svg-flowchart-slot-6" data-look="classic" transform="translate(450.6640625, 85)"><g transform="translate(0,-18)"><path d="M-24 -24 L24 -24 L24 24 L-24 24" stroke="none" stroke-width="0" fill="none"/></g><g class="label" style="" transform="translate(-43.9921875,14)"><rect/><foreignObject width="87.984375" height="28"><div xmlns="http://www.w3.org/1999/xhtml" class="labelBkg" style="display: table-cell; white-space: nowrap; line-height: 1.5; max-width: 200px; text-align: center;"><span class="nodeLabel"><p>Staging Slot</p></span></div></foreignObject></g><g><path d="M-43.9921875 -42 L43.9921875 -42 L43.9921875 42 L-43.9921875 42" stroke="none" stroke-width="0" fill="transparent"/></g><g transform="translate(-23.948599576950073,-42.04620921611786)" style="color: #ccc;"><g><svg xmlns="http://www.w3.org/2000/svg" width="48" height="48" viewBox="0 0 18 18"><defs><linearGradient id="IconifyId19f3cd882dee7b7156" x1="4.4" x2="4.37" y1="11.48" y2="7.53" gradientUnits="userSpaceOnUse"><stop offset="0" stop-color="#ccc"/><stop offset="1" stop-color="#fcfcfc"/></linearGradient><linearGradient id="IconifyId19f3cd882dee7b7157" x1="10.13" x2="10.13" y1="15.45" y2="11.9" gradientUnits="userSpaceOnUse"><stop offset="0" stop-color="#ccc"/><stop offset="1" stop-color="#fcfcfc"/></linearGradient><linearGradient id="IconifyId19f3cd882dee7b7158" x1="14.18" x2="14.18" y1="11.15" y2="7.38" gradientUnits="userSpaceOnUse"><stop offset="0" stop-color="#ccc"/><stop offset="1" stop-color="#fcfcfc"/></linearGradient><radialGradient id="IconifyId19f3cd882dee7b7159" cx="13428.81" cy="3518.86" r="56.67" gradientTransform="matrix(.15 0 0 .15 -2005.33 -518.83)" gradientUnits="userSpaceOnUse"><stop offset=".18" stop-color="#5ea0ef"/><stop offset="1" stop-color="#0078d4"/></radialGradient></defs><path fill="url(#IconifyId19f3cd882dee7b7159)" d="M14.21 15.72A8.5 8.5 0 013.79 2.28l.09-.06a8.5 8.5 0 0110.33 13.5"/><path fill="#fff" d="M6.69 7.23a13 13 0 018.91-3.58 8.5 8.5 0 00-1.49-1.44 14.3 14.3 0 00-4.69 1.1 12.5 12.5 0 00-4.08 2.82 2.76 2.76 0 011.35 1.1m-4.21 3.42a18 18 0 00-.83 2.62 8 8 0 00.62.92c.18.23.35.44.55.65a18 18 0 011.08-3.47 2.76 2.76 0 01-1.42-.72" opacity=".6"/><path fill="#f2f2f2" d="M3.46 6.11a12 12 0 01-.69-2.94 8 8 0 00-1.1 1.45A12.7 12.7 0 002.24 7a2.7 2.7 0 011.22-.89" opacity=".55"/><circle cx="4.38" cy="8.68" r="2.73" fill="url(#IconifyId19f3cd882dee7b7156)"/><path fill="#f2f2f2" d="M8.36 13.67a1.77 1.77 0 01.54-1.27 12 12 0 01-2.53-1.86 2.74 2.74 0 01-1.49.83 13 13 0 001.45 1.28 12 12 0 002.05 1.25 2 2 0 01-.02-.23m6.3.21a12 12 0 01-2.76-.32.4.4 0 010 .11 1.75 1.75 0 01-.51 1.24 13.7 13.7 0 003.42.24A8.2 8.2 0 0016 13.81a12 12 0 01-1.34.07" opacity=".55"/><circle cx="10.13" cy="13.67" r="1.78" fill="url(#IconifyId19f3cd882dee7b7157)"/><path fill="#f2f2f2" d="M12.32 8.93a1.83 1.83 0 01.61-1 25.5 25.5 0 01-4.46-4.14 17 17 0 01-2-2.92 7.6 7.6 0 00-1.09.42 18 18 0 002.15 3.18 26.4 26.4 0 004.79 4.46" opacity=".7"/><circle cx="14.18" cy="9.27" r="1.89" fill="url(#IconifyId19f3cd882dee7b7158)"/><path fill="#f2f2f2" d="m17.35 10.54-.35-.17-.3-.16h-.06l-.26-.21h-.07L16 9.8a1.76 1.76 0 01-.64.92c.12.08.25.15.38.22l.08.05.35.19.86.45a9 9 0 00.29-1.11Z" opacity=".55"/><circle cx="4.38" cy="8.68" r="2.73" fill="url(#IconifyId19f3cd882dee7b7156)"/><circle cx="10.13" cy="13.67" r="1.78" fill="url(#IconifyId19f3cd882dee7b7157)"/></svg></g></g></g></g></g></g></g></g><defs><filter id="my-svg-drop-shadow" height="130%" width="130%"><feDropShadow dx="4" dy="4" stdDeviation="0" flood-opacity="0.06" flood-color="#FFFFFF"/></filter></defs><defs><filter id="my-svg-drop-shadow-small" height="150%" width="150%"><feDropShadow dx="2" dy="2" stdDeviation="0" flood-opacity="0.06" flood-color="#FFFFFF"/></filter></defs><linearGradient id="my-svg-gradient" gradientUnits="objectBoundingBox" x1="0%" y1="0%" x2="100%" y2="0%"><stop offset="0%" stop-color="#cccccc" stop-opacity="1"/><stop offset="100%" stop-color="hsl(180, 0%, 18.3529411765%)" stop-opacity="1"/></linearGradient></svg>