<svg id="my-svg" width="100%" xmlns="http://www.w3.org/2000/svg" xmlns:xlink="http://www.w3.org/1999/xlink" class="flowchart" style="max-width: 885.25px; background-color: transparent;" viewBox="0 0 885.25 910.5" role="graphics-document document" aria-roledescription="flowchart-v2"><style>#my-svg{font-family:"trebuchet ms",verdana,arial,sans-serif;font-size:16px;fill:#ccc;}@keyframes edge-animation-frame{from{stroke-dashoffset:0;}}@keyframes dash{to{stroke-dashoffset:0;}}#my-svg .edge-animation-slow{stroke-dasharray:9,5!important;stroke-dashoffset:900;animation:dash 50s linear infinite;stroke-linecap:round;}#my-svg .edge-animation-fast{stroke-dasharray:9,5!important;stroke-dashoffset:900;animation:dash 20s linear infinite;stroke-linecap:round;}#my-svg .error-icon{fill:#a44141;}#my-svg .error-text{fill:#ddd;stroke:#ddd;}#my-svg .edge-thickness-normal{stroke-width:1px;}#my-svg .edge-thickness-thick{stroke-width:3.5px;}#my-svg .edge-pattern-solid{stroke-dasharray:0;}#my-svg .edge-thickness-invisible{stroke-width:0;fill:none;}#my-svg .edge-pattern-dashed{stroke-dasharray:3;}#my-svg .edge-pattern-dotted{stroke-dasharray:2;}#my-svg .marker{fill:lightgrey;stroke:lightgrey;}#my-svg .marker.cross{stroke:lightgrey;}#my-svg svg{font-family:"trebuchet ms",verdana,arial,sans-serif;font-size:16px;}#my-svg p{margin:0;}#my-svg .label{font-family:"trebuchet ms",verdana,arial,sans-serif;color:#ccc;}#my-svg .cluster-label text{fill:#F9FFFE;}#my-svg .cluster-label span{color:#F9FFFE;}#my-svg .cluster-label span p{background-color:transparent;}#my-svg .label text,#my-svg span{fill:#ccc;color:#ccc;}#my-svg .node rect,#my-svg .node circle,#my-svg .node ellipse,#my-svg .node polygon,#my-svg .node path{fill:#1f2020;stroke:#ccc;stroke-width:1px;}#my-svg .rough-node .label text,#my-svg .node .label text,#my-svg .image-shape .label,#my-svg .icon-shape .label{text-anchor:middle;}#my-svg .node .katex path{fill:#000;stroke:#000;stroke-width:1px;}#my-svg .rough-node .label,#my-svg .node .label,#my-svg .image-shape .label,#my-svg .icon-shape .label{text-align:center;}#my-svg .node.clickable{cursor:pointer;}#my-svg .root .anchor path{fill:lightgrey!important;stroke-width:0;stroke:lightgrey;}#my-svg .arrowheadPath{fill:lightgrey;}#my-svg .edgePath .path{stroke:lightgrey;stroke-width:2.0px;}#my-svg .flowchart-link{stroke:lightgrey;fill:none;}#my-svg .edgeLabel{background-color:hsl(0, 0%, 34.4117647059%);text-align:center;}#my-svg .edgeLabel p{background-color:hsl(0, 0%, 34.4117647059%);}#my-svg .edgeLabel rect{opacity:0.5;background-color:hsl(0, 0%, 34.4117647059%);fill:hsl(0, 0%, 34.4117647059%);}#my-svg .labelBkg{background-color:rgba(87.75, 87.75, 87.75, 0.5);}#my-svg .cluster rect{fill:hsl(180, 1.5873015873%, 28.3529411765%);stroke:rgba(255, 255, 255, 0.25);stroke-width:1px;}#my-svg .cluster text{fill:#F9FFFE;}#my-svg .cluster span{color:#F9FFFE;}#my-svg div.mermaidTooltip{position:absolute;text-align:center;max-width:200px;padding:2px;font-family:"trebuchet ms",verdana,arial,sans-serif;font-size:12px;background:hsl(20, 1.5873015873%, 12.3529411765%);border:1px solid rgba(255, 255, 255, 0.25);border-radius:2px;pointer-events:none;z-index:100;}#my-svg .flowchartTitleText{text-anchor:middle;font-size:18px;fill:#ccc;}#my-svg rect.text{fill:none;stroke-width:0;}#my-svg .icon-shape,#my-svg .image-shape{background-color:hsl(0, 0%, 34.4117647059%);text-align:center;}#my-svg .icon-shape p,#my-svg .image-shape p{background-color:hsl(0, 0%, 34.4117647059%);padding:2px;}#my-svg .icon-shape .label rect,#my-svg .image-shape .label rect{opacity:0.5;background-color:hsl(0, 0%, 34.4117647059%);fill:hsl(0, 0%, 34.4117647059%);}#my-svg .label-icon{display:inline-block;height:1em;overflow:visible;vertical-align:-0.125em;}#my-svg .node .label-icon path{fill:currentColor;stroke:revert;stroke-width:revert;}#my-svg :root{--mermaid-font-family:"trebuchet ms",verdana,arial,sans-serif;}</style><g><marker id="my-svg_flowchart-v2-pointEnd" class="marker flowchart-v2" viewBox="0 0 10 10" refX="5" refY="5" markerUnits="userSpaceOnUse" markerWidth="8" markerHeight="8" orient="auto"><path d="M 0 0 L 10 5 L 0 10 z" class="arrowMarkerPath" style="stroke-width: 1; stroke-dasharray: 1, 0;"/></marker><marker id="my-svg_flowchart-v2-pointStart" class="marker flowchart-v2" viewBox="0 0 10 10" refX="4.5" refY="5" markerUnits="userSpaceOnUse" markerWidth="8" markerHeight="8" orient="auto"><path d="M 0 5 L 10 10 L 10 0 z" class="arrowMarkerPath" style="stroke-width: 1; stroke-dasharray: 1, 0;"/></marker><marker id="my-svg_flowchart-v2-circleEnd" class="marker flowchart-v2" viewBox="0 0 10 10" refX="11" refY="5" markerUnits="userSpaceOnUse" markerWidth="11" markerHeight="11" orient="auto"><circle cx="5" cy="5" r="5" class="arrowMarkerPath" style="stroke-width: 1; stroke-dasharray: 1, 0;"/></marker><marker id="my-svg_flowchart-v2-circleStart" class="marker flowchart-v2" viewBox="0 0 10 10" refX="-1" refY="5" markerUnits="userSpaceOnUse" markerWidth="11" markerHeight="11" orient="auto"><circle cx="5" cy="5" r="5" class="arrowMarkerPath" style="stroke-width: 1; stroke-dasharray: 1, 0;"/></marker><marker id="my-svg_flowchart-v2-crossEnd" class="marker cross flowchart-v2" viewBox="0 0 11 11" refX="12" refY="5.2" markerUnits="userSpaceOnUse" markerWidth="11" markerHeight="11" orient="auto"><path d="M 1,1 l 9,9 M 10,1 l -9,9" class="arrowMarkerPath" style="stroke-width: 2; stroke-dasharray: 1, 0;"/></marker><marker id="my-svg_flowchart-v2-crossStart" class="marker cross flowchart-v2" viewBox="0 0 11 11" refX="-1" refY="5.2" markerUnits="userSpaceOnUse" markerWidth="11" markerHeight="11" orient="auto"><path d="M 1,1 l 9,9 M 10,1 l -9,9" class="arrowMarkerPath" style="stroke-width: 2; stroke-dasharray: 1, 0;"/></marker><g class="root"><g class="clusters"><g class="cluster" id="Replication" data-look="classic"><rect style="" x="627.25" y="724.5" width="250" height="178"/><g class="cluster-label" transform="translate(657.5390625, 724.5)"><foreignObject width="189.421875" height="24"><div xmlns="http://www.w3.org/1999/xhtml" style="display: table-cell; white-space: nowrap; line-height: 1.5;"><span class="nodeLabel"><p>Geo-Replication (Optional)</p></span></div></foreignObject></g></g><g class="cluster" id="Monitoring" data-look="classic"><rect style="" x="154.296875" y="465" width="226.53125" height="288"/><g class="cluster-label" transform="translate(230.2109375, 465)"><foreignObject width="74.703125" height="24"><div xmlns="http://www.w3.org/1999/xhtml" style="display: table-cell; white-space: nowrap; line-height: 1.5;"><span class="nodeLabel"><p>Monitoring</p></span></div></foreignObject></g></g><g class="cluster" id="Network" data-look="classic"><rect style="" x="154.296875" y="187" width="226.53125" height="258"/><g class="cluster-label" transform="translate(215.984375, 187)"><foreignObject width="103.15625" height="24"><div xmlns="http://www.w3.org/1999/xhtml" style="display: table-cell; white-space: nowrap; line-height: 1.5;"><span class="nodeLabel"><p>Network Layer</p></span></div></foreignObject></g></g><g class="cluster" id="Storage" data-look="classic"><rect style="" x="430.828125" y="8" width="446.421875" height="696.5"/><g class="cluster-label" transform="translate(596.2421875, 8)"><foreignObject width="115.59375" height="24"><div xmlns="http://www.w3.org/1999/xhtml" style="display: table-cell; white-space: nowrap; line-height: 1.5;"><span class="nodeLabel"><p>Primary Storage</p></span></div></foreignObject></g></g><g class="cluster" id="Security" data-look="classic"><rect style="" x="8" y="13" width="372.828125" height="154"/><g class="cluster-label" transform="translate(143.28125, 13)"><foreignObject width="102.265625" height="24"><div xmlns="http://www.w3.org/1999/xhtml" style="display: table-cell; white-space: nowrap; line-height: 1.5;"><span class="nodeLabel"><p>Security Layer</p></span></div></foreignObject></g></g></g><g class="edgePaths"><path d="M93.148,90.5L99.173,90.417C105.198,90.333,117.247,90.167,127.439,90.083C137.63,90,145.964,90,164.424,90.08C182.885,90.159,211.474,90.318,225.768,90.398L240.063,90.478" id="L_kv_cmk_0" class="edge-thickness-normal edge-pattern-dotted edge-thickness-normal edge-pattern-solid flowchart-link" style=";" data-edge="true" data-et="edge" data-id="L_kv_cmk_0" data-points="W3sieCI6OTMuMTQ4NDM3NSwieSI6OTAuNX0seyJ4IjoxMjkuMjk2ODc1LCJ5Ijo5MH0seyJ4IjoxNTQuMjk2ODc1LCJ5Ijo5MH0seyJ4IjoyNDQuMDYyNSwieSI6OTAuNX1d" marker-end="url(#my-svg_flowchart-v2-pointEnd)"/><path d="M292.063,90.5L306.857,90.417C321.651,90.333,351.24,90.167,370.201,90.083C389.161,90,397.495,90,405.828,90C414.161,90,422.495,90,438.674,128.78C454.854,167.56,478.88,245.119,490.893,283.899L502.906,322.679" id="L_cmk_sa_0" class="edge-thickness-normal edge-pattern-dotted edge-thickness-normal edge-pattern-solid flowchart-link" style=";" data-edge="true" data-et="edge" data-id="L_cmk_sa_0" data-points="W3sieCI6MjkyLjA2MjUsInkiOjkwLjV9LHsieCI6MzgwLjgyODEyNSwieSI6OTB9LHsieCI6NDA1LjgyODEyNSwieSI6OTB9LHsieCI6NDMwLjgyODEyNSwieSI6OTB9LHsieCI6NTA0LjA4OTkyODA1NzU1Mzk1LCJ5IjozMjYuNX1d" marker-end="url(#my-svg_flowchart-v2-pointEnd)"/><path d="M349.578,249L354.786,249C359.995,249,370.411,249,379.786,249C389.161,249,397.495,249,405.828,249C414.161,249,422.495,249,436.64,262.823C450.785,276.645,470.741,304.29,480.72,318.113L490.698,331.935" id="L_netrules_sa_0" class="edge-thickness-normal edge-pattern-solid edge-thickness-normal edge-pattern-solid flowchart-link" style=";" data-edge="true" data-et="edge" data-id="L_netrules_sa_0" data-points="W3sieCI6MzQ5LjU3ODEyNSwieSI6MjQ5fSx7IngiOjM4MC44MjgxMjUsInkiOjI0OX0seyJ4Ijo0MDUuODI4MTI1LCJ5IjoyNDl9LHsieCI6NDMwLjgyODEyNSwieSI6MjQ5fSx7IngiOjQ5My4wMzkwNjI1LCJ5IjozMzUuMTc4Njk4Mzg2NjU1NzV9XQ==" marker-end="url(#my-svg_flowchart-v2-pointEnd)"/><path d="M292.063,368.5L306.857,368.417C321.651,368.333,351.24,368.167,370.201,368.083C389.161,368,397.495,368,405.828,368C414.161,368,422.495,368,436.363,368.078C450.232,368.156,469.636,368.312,479.337,368.39L489.039,368.468" id="L_pep_sa_0" class="edge-thickness-normal edge-pattern-solid edge-thickness-normal edge-pattern-solid flowchart-link" style=";" data-edge="true" data-et="edge" data-id="L_pep_sa_0" data-points="W3sieCI6MjkyLjA2MjUsInkiOjM2OC41fSx7IngiOjM4MC44MjgxMjUsInkiOjM2OH0seyJ4Ijo0MDUuODI4MTI1LCJ5IjozNjh9LHsieCI6NDMwLjgyODEyNSwieSI6MzY4fSx7IngiOjQ5My4wMzkwNjI1LCJ5IjozNjguNX1d" marker-end="url(#my-svg_flowchart-v2-pointEnd)"/><path d="M529.759,326.5L541.841,286.25C553.923,246,578.086,165.5,594.335,125.25C610.583,85,618.917,85,639.333,85.08C659.75,85.16,692.25,85.32,708.5,85.4L724.75,85.48" id="L_sa_containers_0" class="edge-thickness-normal edge-pattern-solid edge-thickness-normal edge-pattern-solid flowchart-link" style=";" data-edge="true" data-et="edge" data-id="L_sa_containers_0" data-points="W3sieCI6NTI5Ljc1OTQxMzY0ODQwOTksInkiOjMyNi41fSx7IngiOjYwMi4yNSwieSI6ODV9LHsieCI6NjI3LjI1LCJ5Ijo4NX0seyJ4Ijo3MjguNzUsInkiOjg1LjV9XQ==" marker-end="url(#my-svg_flowchart-v2-pointEnd)"/><path d="M541.039,326.778L551.241,308.815C561.443,290.852,581.846,254.926,596.215,236.963C610.583,219,618.917,219,639.333,219.08C659.75,219.16,692.25,219.32,708.5,219.4L724.75,219.48" id="L_sa_tables_0" class="edge-thickness-normal edge-pattern-solid edge-thickness-normal edge-pattern-solid flowchart-link" style=";" data-edge="true" data-et="edge" data-id="L_sa_tables_0" data-points="W3sieCI6NTQxLjAzOTA2MjUsInkiOjMyNi43NzgzNzAyNDg4Mzc4Nn0seyJ4Ijo2MDIuMjUsInkiOjIxOX0seyJ4Ijo2MjcuMjUsInkiOjIxOX0seyJ4Ijo3MjguNzUsInkiOjIxOS41fV0=" marker-end="url(#my-svg_flowchart-v2-pointEnd)"/><path d="M530.911,410.5L542.801,446.667C554.691,482.833,578.47,555.167,594.527,591.333C610.583,627.5,618.917,627.5,639.333,627.58C659.75,627.66,692.25,627.82,708.5,627.9L724.75,627.98" id="L_sa_queues_0" class="edge-thickness-normal edge-pattern-solid edge-thickness-normal edge-pattern-solid flowchart-link" style=";" data-edge="true" data-et="edge" data-id="L_sa_queues_0" data-points="W3sieCI6NTMwLjkxMTM1Mjk2MjQyNzcsInkiOjQxMC41fSx7IngiOjYwMi4yNSwieSI6NjI3LjV9LHsieCI6NjI3LjI1LCJ5Ijo2MjcuNX0seyJ4Ijo3MjguNzUsInkiOjYyOH1d" marker-end="url(#my-svg_flowchart-v2-pointEnd)"/><path d="M529.119,410.5L541.308,453.083C553.496,495.667,577.873,580.833,594.228,623.417C610.583,666,618.917,666,639.569,685.438C660.221,704.876,693.192,743.753,709.677,763.191L726.163,782.629" id="L_sa_secondary_0" class="edge-thickness-normal edge-pattern-dotted edge-thickness-normal edge-pattern-solid flowchart-link" style=";" data-edge="true" data-et="edge" data-id="L_sa_secondary_0" data-points="W3sieCI6NTI5LjExOTEyNzUxNjc3ODYsInkiOjQxMC41fSx7IngiOjYwMi4yNSwieSI6NjY2fSx7IngiOjYyNy4yNSwieSI6NjY2fSx7IngiOjcyOC43NSwieSI6Nzg1LjY4fV0=" marker-end="url(#my-svg_flowchart-v2-pointEnd)"/><path d="M292.063,542.5L306.857,542.417C321.651,542.333,351.24,542.167,370.201,542.083C389.161,542,397.495,542,405.828,542C414.161,542,422.495,542,437.284,520.68C452.074,499.36,473.32,456.72,483.943,435.4L494.566,414.08" id="L_alert_sa_0" class="edge-thickness-normal edge-pattern-dotted edge-thickness-normal edge-pattern-solid flowchart-link" style=";" data-edge="true" data-et="edge" data-id="L_alert_sa_0" data-points="W3sieCI6MjkyLjA2MjUsInkiOjU0Mi41fSx7IngiOjM4MC44MjgxMjUsInkiOjU0Mn0seyJ4Ijo0MDUuODI4MTI1LCJ5Ijo1NDJ9LHsieCI6NDMwLjgyODEyNSwieSI6NTQyfSx7IngiOjQ5Ni4zNTAyMTU1MTcyNDE0LCJ5Ijo0MTAuNX1d" marker-end="url(#my-svg_flowchart-v2-pointEnd)"/><path d="M292.063,676.5L306.857,676.417C321.651,676.333,351.24,676.167,370.201,676.083C389.161,676,397.495,676,405.828,676C414.161,676,422.495,676,438.902,632.392C455.309,588.784,479.79,501.567,492.03,457.959L504.27,414.351" id="L_defender_sa_0" class="edge-thickness-normal edge-pattern-dotted edge-thickness-normal edge-pattern-solid flowchart-link" style=";" data-edge="true" data-et="edge" data-id="L_defender_sa_0" data-points="W3sieCI6MjkyLjA2MjUsInkiOjY3Ni41fSx7IngiOjM4MC44MjgxMjUsInkiOjY3Nn0seyJ4Ijo0MDUuODI4MTI1LCJ5Ijo2NzZ9LHsieCI6NDMwLjgyODEyNSwieSI6Njc2fSx7IngiOjUwNS4zNTEyMDczODYzNjM2LCJ5Ijo0MTAuNX1d" marker-end="url(#my-svg_flowchart-v2-pointEnd)"/></g><g class="edgeLabels"><g class="edgeLabel"><g class="label" data-id="L_kv_cmk_0" transform="translate(0, 0)"><foreignObject width="0" height="0"><div xmlns="http://www.w3.org/1999/xhtml" class="labelBkg" style="display: table-cell; white-space: nowrap; line-height: 1.5; max-width: 200px; text-align: center;"><span class="edgeLabel"></span></div></foreignObject></g></g><g class="edgeLabel"><g class="label" data-id="L_cmk_sa_0" transform="translate(0, 0)"><foreignObject width="0" height="0"><div xmlns="http://www.w3.org/1999/xhtml" class="labelBkg" style="display: table-cell; white-space: nowrap; line-height: 1.5; max-width: 200px; text-align: center;"><span class="edgeLabel"></span></div></foreignObject></g></g><g class="edgeLabel"><g class="label" data-id="L_netrules_sa_0" transform="translate(0, 0)"><foreignObject width="0" height="0"><div xmlns="http://www.w3.org/1999/xhtml" class="labelBkg" style="display: table-cell; white-space: nowrap; line-height: 1.5; max-width: 200px; text-align: center;"><span class="edgeLabel"></span></div></foreignObject></g></g><g class="edgeLabel"><g class="label" data-id="L_pep_sa_0" transform="translate(0, 0)"><foreignObject width="0" height="0"><div xmlns="http://www.w3.org/1999/xhtml" class="labelBkg" style="display: table-cell; white-space: nowrap; line-height: 1.5; max-width: 200px; text-align: center;"><span class="edgeLabel"></span></div></foreignObject></g></g><g class="edgeLabel"><g class="label" data-id="L_sa_containers_0" transform="translate(0, 0)"><foreignObject width="0" height="0"><div xmlns="http://www.w3.org/1999/xhtml" class="labelBkg" style="display: table-cell; white-space: nowrap; line-height: 1.5; max-width: 200px; text-align: center;"><span class="edgeLabel"></span></div></foreignObject></g></g><g class="edgeLabel"><g class="label" data-id="L_sa_tables_0" transform="translate(0, 0)"><foreignObject width="0" height="0"><div xmlns="http://www.w3.org/1999/xhtml" class="labelBkg" style="display: table-cell; white-space: nowrap; line-height: 1.5; max-width: 200px; text-align: center;"><span class="edgeLabel"></span></div></foreignObject></g></g><g class="edgeLabel"><g class="label" data-id="L_sa_queues_0" transform="translate(0, 0)"><foreignObject width="0" height="0"><div xmlns="http://www.w3.org/1999/xhtml" class="labelBkg" style="display: table-cell; white-space: nowrap; line-height: 1.5; max-width: 200px; text-align: center;"><span class="edgeLabel"></span></div></foreignObject></g></g><g class="edgeLabel"><g class="label" data-id="L_sa_secondary_0" transform="translate(0, 0)"><foreignObject width="0" height="0"><div xmlns="http://www.w3.org/1999/xhtml" class="labelBkg" style="display: table-cell; white-space: nowrap; line-height: 1.5; max-width: 200px; text-align: center;"><span class="edgeLabel"></span></div></foreignObject></g></g><g class="edgeLabel"><g class="label" data-id="L_alert_sa_0" transform="translate(0, 0)"><foreignObject width="0" height="0"><div xmlns="http://www.w3.org/1999/xhtml" class="labelBkg" style="display: table-cell; white-space: nowrap; line-height: 1.5; max-width: 200px; text-align: center;"><span class="edgeLabel"></span></div></foreignObject></g></g><g class="edgeLabel"><g class="label" data-id="L_defender_sa_0" transform="translate(0, 0)"><foreignObject width="0" height="0"><div xmlns="http://www.w3.org/1999/xhtml" class="labelBkg" style="display: table-cell; white-space: nowrap; line-height: 1.5; max-width: 200px; text-align: center;"><span class="edgeLabel"></span></div></foreignObject></g></g></g><g class="nodes"><g class="icon-shape default" id="flowchart-kv-0" transform="translate(68.6484375, 90)"><g transform="translate(0,-18)"><path d="M-24 -24 L24 -24 L24 24 L-24 24" stroke="none" stroke-width="0" fill="none"/></g><g class="label" style="" transform="translate(-35.6484375,14)"><rect/><foreignObject width="71.296875" height="28"><div xmlns="http://www.w3.org/1999/xhtml" class="labelBkg" style="display: table-cell; white-space: nowrap; line-height: 1.5; max-width: 200px; text-align: center;"><span class="nodeLabel"><p>Key Vault</p></span></div></foreignObject></g><g><path d="M-35.6484375 -42 L35.6484375 -42 L35.6484375 42 L-35.6484375 42" stroke="none" stroke-width="0" fill="transparent"/></g><g transform="translate(-24.000000596046448,-42.000001311302185)" style="color: #ccc;"><g><svg xmlns="http://www.w3.org/2000/svg" width="48" height="48" viewBox="0 0 18 18"><defs><radialGradient id="IconifyId19ce82fbaeb83e26b3" cx="9" cy="9" r="8.5" gradientUnits="userSpaceOnUse"><stop offset=".18" stop-color="#5ea0ef"/><stop offset=".56" stop-color="#5c9fee"/><stop offset=".69" stop-color="#559ced"/><stop offset=".78" stop-color="#4a97e9"/><stop offset=".86" stop-color="#3990e4"/><stop offset=".93" stop-color="#2387de"/><stop offset=".99" stop-color="#087bd6"/><stop offset="1" stop-color="#0078d4"/></radialGradient><radialGradient id="IconifyId19ce82fbaeb83e26b4" cx="38.95" cy="182.07" r="9.88" gradientTransform="matrix(.94 0 0 .94 -28.71 -163.24)" gradientUnits="userSpaceOnUse"><stop offset=".27" stop-color="#ffd70f"/><stop offset=".49" stop-color="#ffcb12"/><stop offset=".88" stop-color="#feac19"/><stop offset="1" stop-color="#fea11b"/></radialGradient></defs><path fill="url(#IconifyId19ce82fbaeb83e26b3)" d="M9 .5A8.5 8.5 0 1017.5 9 8.51 8.51 0 009 .5m0 15.84A7.34 7.34 0 1116.34 9 7.34 7.34 0 019 16.34"/><circle cx="9" cy="9" r="7.34" fill="#fff"/><path fill="url(#IconifyId19ce82fbaeb83e26b4)" d="M13.44 7.33a1.84 1.84 0 000-2.59l-3.15-3.16a1.83 1.83 0 00-2.58 0L4.56 4.74a1.84 1.84 0 000 2.59L7.18 10a.5.5 0 01.15.36v4.88a.63.63 0 00.18.44l1.2 1.2a.41.41 0 00.58 0l1.16-1.16.68-.68a.25.25 0 000-.34l-.49-.49a.27.27 0 010-.37l.49-.49a.25.25 0 000-.34l-.49-.49a.27.27 0 010-.37l.49-.49a.25.25 0 000-.34l-.68-.69v-.25ZM9 2.35a1 1 0 010 2.07 1 1 0 110-2.07"/><path fill="#ff9300" d="M8.18 15.3a.23.23 0 00.38-.17v-4a.24.24 0 00-.11-.2.22.22 0 00-.34.2v4a.28.28 0 00.07.17" opacity=".75"/><rect width="5.17" height=".61" x="6.48" y="5.79" fill="#ff9300" opacity=".75" rx=".28"/><rect width="5.17" height=".61" x="6.48" y="6.78" fill="#ff9300" opacity=".75" rx=".28"/></svg></g></g></g><g class="icon-shape default" id="flowchart-cmk-3" transform="translate(267.5625, 90)"><g transform="translate(0,-18)"><path d="M-24 -24 L24 -24 L24 24 L-24 24" stroke="none" stroke-width="0" fill="none"/></g><g class="label" style="" transform="translate(-88.265625,14)"><rect/><foreignObject width="176.53125" height="28"><div xmlns="http://www.w3.org/1999/xhtml" class="labelBkg" style="display: table-cell; white-space: nowrap; line-height: 1.5; max-width: 200px; text-align: center;"><span class="nodeLabel"><p>Customer Managed Key</p></span></div></foreignObject></g><g><path d="M-88.265625 -42 L88.265625 -42 L88.265625 42 L-88.265625 42" stroke="none" stroke-width="0" fill="transparent"/></g><g transform="translate(-23.999999523162842,-41.99710559844971)" style="color: #ccc;"><g><svg xmlns="http://www.w3.org/2000/svg" width="48" height="48" viewBox="0 0 18 18"><defs><linearGradient id="IconifyId19ce82fbaeb83e26b0" x1="9" x2="9" y1="8.112" y2="19.5" gradientTransform="matrix(1 0 0 -1 0 20)" gradientUnits="userSpaceOnUse"><stop offset=".251" stop-color="#32bedd"/><stop offset=".83" stop-color="#50e6ff"/></linearGradient><linearGradient id="IconifyId19ce82fbaeb83e26b1" x1="-120.971" x2="-120.971" y1="1279.27" y2="1293.115" gradientTransform="scale(1 -1)rotate(-45 -1620.203 482.207)" gradientUnits="userSpaceOnUse"><stop offset="0" stop-color="#0078d4"/><stop offset=".142" stop-color="#077bd6"/><stop offset=".345" stop-color="#1a83db"/><stop offset=".584" stop-color="#3990e4"/><stop offset=".82" stop-color="#5ea0ef"/></linearGradient></defs><path fill="url(#IconifyId19ce82fbaeb83e26b0)" d="M17.026 8.314A3.61 3.61 0 0013.9 4.845 4.55 4.55 0 009.214.5a4.665 4.665 0 00-4.459 3.043A4.3 4.3 0 00.974 7.681a4.37 4.37 0 004.521 4.2h7.714a.7.7 0 00.2 0 3.647 3.647 0 003.617-3.567"/><path fill="url(#IconifyId19ce82fbaeb83e26b1)" d="M12.3 10.954a1.6 1.6 0 001.6-1.6V5.478A1.57 1.57 0 0012.335 3.9H8.429a1.6 1.6 0 00-1.587 1.6v3.22a.46.46 0 01-.134.28L3.7 12.042a.54.54 0 00-.161.384v1.462a.357.357 0 00.348.366h2.286a.205.205 0 00.205-.205v-.589a.23.23 0 01.232-.232h.606a.205.205 0 00.206-.205v-.633a.22.22 0 01.222-.223h.607a.205.205 0 00.214-.2v-.847l.152-.161Zm.339-5.8a.911.911 0 11-.024-.023Z"/><path fill="#50e6ff" d="M15.171 14.2a1.587 1.587 0 001.588-1.587v-3.88a1.59 1.59 0 00-1.588-1.587H11.3a1.6 1.6 0 00-1.6 1.6v3.229a.42.42 0 01-.134.312l-3.001 3.001a.54.54 0 00-.151.384v1.471a.356.356 0 00.356.357h2.275a.205.205 0 00.205-.2v-.607a.223.223 0 01.223-.223h.606a.2.2 0 00.205-.2v-.615a.223.223 0 01.223-.223h.607a.205.205 0 00.205-.205v-.865l.16-.152Zm.33-5.788a.9.9 0 11-1.275 0 .9.9 0 011.274 0Z"/><path fill="#fff" d="M7.083 15.734a.2.2 0 00.205.187.2.2 0 00.134-.062l2.47-2.4a.22.22 0 00.062-.187.2.2 0 00-.33-.089l-2.479 2.4a.25.25 0 00-.062.151"/><rect width=".535" height="4.521" x="13.048" y="8.334" fill="#fff" rx=".241" transform="rotate(-45 13.316 10.594)"/><rect width=".535" height="4.521" x="12.436" y="8.948" fill="#fff" rx=".241" transform="rotate(-45 12.703 11.208)"/>​</svg></g></g></g><g class="icon-shape default" id="flowchart-sa-6" transform="translate(516.5390625, 368)"><g transform="translate(0,-18)"><path d="M-24 -24 L24 -24 L24 24 L-24 24" stroke="none" stroke-width="0" fill="none"/></g><g class="label" style="" transform="translate(-60.7109375,14)"><rect/><foreignObject width="121.421875" height="28"><div xmlns="http://www.w3.org/1999/xhtml" class="labelBkg" style="display: table-cell; white-space: nowrap; line-height: 1.5; max-width: 200px; text-align: center;"><span class="nodeLabel"><p>Storage Account</p></span></div></foreignObject></g><g><path d="M-60.7109375 -42 L60.7109375 -42 L60.7109375 42 L-60.7109375 42" stroke="none" stroke-width="0" fill="transparent"/></g><g transform="translate(-24.000001311302185,-42.0133318901062)" style="color: #ccc;"><g><svg xmlns="http://www.w3.org/2000/svg" width="48" height="48" viewBox="0 0 18 18"><defs><linearGradient id="IconifyId19ce82fbaeb83e26b5" x1="9" x2="9" y1="15.83" y2="5.79" gradientUnits="userSpaceOnUse"><stop offset="0" stop-color="#b3b3b3"/><stop offset=".26" stop-color="#c1c1c1"/><stop offset="1" stop-color="#e6e6e6"/></linearGradient></defs><path fill="url(#IconifyId19ce82fbaeb83e26b5)" d="M.5 5.79h17v9.48a.57.57 0 01-.57.57H1.07a.57.57 0 01-.57-.57z"/><path fill="#37c2b1" d="M1.07 2.17h15.86a.57.57 0 01.57.57v3.05H.5V2.73a.57.57 0 01.57-.56"/><path fill="#fff" d="M2.81 6.89h12.37a.27.27 0 01.26.27v1.4a.27.27 0 01-.26.27H2.81a.27.27 0 01-.26-.27v-1.4a.27.27 0 01.26-.27"/><path fill="#37c2b1" d="M2.82 9.68h12.37a.27.27 0 01.26.27v1.41a.27.27 0 01-.26.27H2.82a.27.27 0 01-.26-.27V10a.27.27 0 01.26-.32"/><path fill="#258277" d="M2.82 12.5h12.37a.27.27 0 01.26.27v1.41a.27.27 0 01-.26.27H2.82a.27.27 0 01-.26-.27v-1.41a.27.27 0 01.26-.27"/></svg></g></g></g><g class="icon-shape default" id="flowchart-containers-9" transform="translate(752.25, 85)"><g transform="translate(0,-18)"><path d="M-24 -24 L24 -24 L24 24 L-24 24" stroke="none" stroke-width="0" fill="none"/></g><g class="label" style="" transform="translate(-40.6875,14)"><rect/><foreignObject width="81.375" height="28"><div xmlns="http://www.w3.org/1999/xhtml" class="labelBkg" style="display: table-cell; white-space: nowrap; line-height: 1.5; max-width: 200px; text-align: center;"><span class="nodeLabel"><p>Containers</p></span></div></foreignObject></g><g><path d="M-40.6875 -42 L40.6875 -42 L40.6875 42 L-40.6875 42" stroke="none" stroke-width="0" fill="transparent"/></g><g transform="translate(-24.00000011920929,-41.998666763305664)" style="color: #ccc;"><g><svg xmlns="http://www.w3.org/2000/svg" width="48" height="48" viewBox="0 0 18 18"><defs><linearGradient id="IconifyId19ce82fbaeb83e26b6" x1="9" x2="9" y1="15.799" y2="5.316" gradientUnits="userSpaceOnUse"><stop offset="0" stop-color="#32bedd"/><stop offset=".775" stop-color="#32d4f5"/></linearGradient></defs><path fill="url(#IconifyId19ce82fbaeb83e26b6)" d="M.544 5.316h16.912v9.918a.565.565 0 01-.565.565H1.109a.565.565 0 01-.565-.565z"/><path fill="#0078d4" d="M1.112 2.2h15.776a.565.565 0 01.565.565v2.55H.547V2.766a.565.565 0 01.565-.566"/><path fill="#f78d1e" d="M13.528 7.347H9.384a.23.23 0 01-.124-.037l-1.183-.787a.2.2 0 00-.123-.038H4.472a.22.22 0 00-.222.222v7.315a.22.22 0 00.222.222h9.056a.22.22 0 00.222-.222V7.569a.22.22 0 00-.222-.222"/><rect width="2.159" height=".432" x="5.114" y="6.91" fill="#fff" rx=".091"/><rect width=".432" height=".432" x="5.114" y="6.91" fill="#d15900" rx=".062"/><path fill="#fff" d="M13.528 7.337H8.977a.22.22 0 00-.157.063l-.732.731a.22.22 0 01-.157.066H4.472a.22.22 0 00-.222.221v5.591a.22.22 0 00.222.222h9.056a.22.22 0 00.222-.222V7.558a.22.22 0 00-.222-.221"/></svg></g></g></g><g class="icon-shape default" id="flowchart-tables-10" transform="translate(752.25, 219)"><g transform="translate(0,-18)"><path d="M-24 -24 L24 -24 L24 24 L-24 24" stroke="none" stroke-width="0" fill="none"/></g><g class="label" style="" transform="translate(-25.125,14)"><rect/><foreignObject width="50.25" height="28"><div xmlns="http://www.w3.org/1999/xhtml" class="labelBkg" style="display: table-cell; white-space: nowrap; line-height: 1.5; max-width: 200px; text-align: center;"><span class="nodeLabel"><p>Tables</p></span></div></foreignObject></g><g><path d="M-25.125 -42 L25.125 -42 L25.125 42 L-25.125 42" stroke="none" stroke-width="0" fill="transparent"/></g><g transform="translate(-24.000001072883606,-41.999998569488525)" style="color: #ccc;"><g><svg xmlns="http://www.w3.org/2000/svg" width="48" height="48" viewBox="0 0 18 18"><defs><linearGradient id="IconifyId19ce82fbaeb83e26b7" x1="9" x2="9" y1="15.834" y2="5.788" gradientUnits="userSpaceOnUse"><stop offset="0" stop-color="#0078d4"/><stop offset=".502" stop-color="#4093e6"/><stop offset=".775" stop-color="#5ea0ef"/></linearGradient></defs><path fill="url(#IconifyId19ce82fbaeb83e26b7)" d="M.5 5.788h17v9.478a.57.57 0 01-.568.568H1.068a.57.57 0 01-.568-.568z"/><path fill="#0078d4" d="M1.071 2.166h15.858a.57.57 0 01.568.568v3.054H.5V2.734a.57.57 0 01.571-.568"/><rect width="3.65" height="1.85" x="2.304" y="7.121" fill="#fff" opacity=".9" rx=".283"/><rect width="3.65" height="1.85" x="7.2" y="7.095" fill="#fff" opacity=".9" rx=".283"/><rect width="3.65" height="1.85" x="12.096" y="7.095" fill="#fff" opacity=".9" rx=".283"/><rect width="3.65" height="1.85" x="2.358" y="9.767" fill="#fff" opacity=".9" rx=".283"/><rect width="3.65" height="1.85" x="7.254" y="9.741" fill="#ffd400" rx=".283"/><rect width="3.65" height="1.85" x="12.15" y="9.741" fill="#ffd400" rx=".283"/><rect width="3.65" height="1.85" x="2.358" y="12.439" fill="#ffd400" rx=".283"/><rect width="3.65" height="1.85" x="7.254" y="12.413" fill="#ffd400" rx=".283"/><rect width="3.65" height="1.85" x="12.15" y="12.413" fill="#ffd400" rx=".283"/></svg></g></g></g><g class="icon-shape default" id="flowchart-queues-11" transform="translate(752.25, 627.5)"><g transform="translate(0,-18)"><path d="M-24 -24 L24 -24 L24 24 L-24 24" stroke="none" stroke-width="0" fill="none"/></g><g class="label" style="" transform="translate(-30.0234375,14)"><rect/><foreignObject width="60.046875" height="28"><div xmlns="http://www.w3.org/1999/xhtml" class="labelBkg" style="display: table-cell; white-space: nowrap; line-height: 1.5; max-width: 200px; text-align: center;"><span class="nodeLabel"><p>Queues</p></span></div></foreignObject></g><g><path d="M-30.0234375 -42 L30.0234375 -42 L30.0234375 42 L-30.0234375 42" stroke="none" stroke-width="0" fill="transparent"/></g><g transform="translate(-24.00000011920929,-41.998666763305664)" style="color: #ccc;"><g><svg xmlns="http://www.w3.org/2000/svg" width="48" height="48" viewBox="0 0 18 18"><defs><linearGradient id="IconifyId19ce82fbaeb83e26b8" x1="9" x2="9" y1="15.799" y2="5.316" gradientUnits="userSpaceOnUse"><stop offset="0" stop-color="#a67af4"/><stop offset=".775" stop-color="#b796f9"/></linearGradient></defs><path fill="url(#IconifyId19ce82fbaeb83e26b8)" d="M.544 5.316h16.912v9.918a.565.565 0 01-.565.565H1.109a.565.565 0 01-.565-.565z"/><path fill="#773adc" d="M1.112 2.2h15.776a.565.565 0 01.565.565v2.55H.547V2.766a.565.565 0 01.565-.566"/><g fill="#fff"><rect width="3.683" height="7.933" x="2.625" y="6.435" rx=".274"/><rect width="3.683" height="7.933" x="7.158" y="6.435" opacity=".75" rx=".274"/><rect width="3.683" height="7.933" x="11.692" y="6.435" opacity=".5" rx=".274"/></g></svg></g></g></g><g class="node default" id="flowchart-netrules-18" transform="translate(267.5625, 249)"><rect class="basic label-container" style="" x="-82.015625" y="-27" width="164.03125" height="54"/><g class="label" style="" transform="translate(-52.015625, -12)"><rect/><foreignObject width="104.03125" height="24"><div xmlns="http://www.w3.org/1999/xhtml" style="display: table-cell; white-space: nowrap; line-height: 1.5; max-width: 200px; text-align: center;"><span class="nodeLabel"><p>Network Rules</p></span></div></foreignObject></g></g><g class="icon-shape default" id="flowchart-pep-19" transform="translate(267.5625, 368)"><g transform="translate(0,-18)"><path d="M-24 -24 L24 -24 L24 24 L-24 24" stroke="none" stroke-width="0" fill="none"/></g><g class="label" style="" transform="translate(-64.703125,14)"><rect/><foreignObject width="129.40625" height="28"><div xmlns="http://www.w3.org/1999/xhtml" class="labelBkg" style="display: table-cell; white-space: nowrap; line-height: 1.5; max-width: 200px; text-align: center;"><span class="nodeLabel"><p>Private Endpoints</p></span></div></foreignObject></g><g><path d="M-64.703125 -42 L64.703125 -42 L64.703125 42 L-64.703125 42" stroke="none" stroke-width="0" fill="transparent"/></g><g transform="translate(-23.99800506979227,-42.00298273563385)" style="color: #ccc;"><g><svg xmlns="http://www.w3.org/2000/svg" width="48" height="48" viewBox="0 0 18 18"><defs><linearGradient id="IconifyId19ce82fbaeb83e26b9" x1="9.084" x2="9.084" y1="790.967" y2="787.492" gradientTransform="matrix(1 0 0 -1 0 791.516)" gradientUnits="userSpaceOnUse"><stop offset="0" stop-color="#50e6ff"/><stop offset="1" stop-color="#32bedd"/></linearGradient><linearGradient id="IconifyId19ce82fbaeb83e26b10" x1="9.065" x2="9.065" y1="13.843" y2="10.368" gradientUnits="userSpaceOnUse"><stop offset="0" stop-color="#5e9624"/><stop offset=".183" stop-color="#629c25"/><stop offset=".435" stop-color="#6dae2a"/><stop offset=".726" stop-color="#7fcb30"/><stop offset=".822" stop-color="#86d633"/></linearGradient></defs><path fill="#b3b3b3" d="M7.85 13.342a1.738 1.738 0 102.436-2.479 1.7 1.7 0 00-.626-.389V3.009H8.548v7.444a1.73 1.73 0 00-.7 2.891Z"/><circle cx="9.084" cy="2.209" r="1.738" fill="url(#IconifyId19ce82fbaeb83e26b9)"/><path fill="#50e6ff" d="m6.195 16.778-.662.664a.3.3 0 01-.424 0L.217 12.564a.6.6 0 01-.001-.849l.661-.663 5.317 5.302a.3.3 0 010 .424"/><path fill="#1490df" d="m5.436 6.885.663.662a.3.3 0 010 .424l-5.224 5.24-.665-.662a.6.6 0 010-.849l4.8-4.815a.3.3 0 01.426 0"/><path fill="#50e6ff" d="m17.121 11.052.662.664a.6.6 0 01-.001.848l-4.892 4.879a.3.3 0 01-.425 0l-.661-.664a.3.3 0 010-.425z"/><path fill="#1490df" d="m17.788 12.548-.663.662L11.9 7.97a.3.3 0 010-.424l.664-.662a.3.3 0 01.424 0L17.79 11.7a.6.6 0 01-.002.848"/><circle cx="9.065" cy="12.106" r="1.738" fill="url(#IconifyId19ce82fbaeb83e26b10)"/></svg></g></g></g><g class="icon-shape default" id="flowchart-alert-22" transform="translate(267.5625, 542)"><g transform="translate(0,-18)"><path d="M-24 -24 L24 -24 L24 24 L-24 24" stroke="none" stroke-width="0" fill="none"/></g><g class="label" style="" transform="translate(-46.0078125,14)"><rect/><foreignObject width="92.015625" height="28"><div xmlns="http://www.w3.org/1999/xhtml" class="labelBkg" style="display: table-cell; white-space: nowrap; line-height: 1.5; max-width: 200px; text-align: center;"><span class="nodeLabel"><p>Metric Alerts</p></span></div></foreignObject></g><g><path d="M-46.0078125 -42 L46.0078125 -42 L46.0078125 42 L-46.0078125 42" stroke="none" stroke-width="0" fill="transparent"/></g><g transform="translate(-24.000001311302185,-42.00000059604645)" style="color: #ccc;"><g><svg xmlns="http://www.w3.org/2000/svg" width="48" height="48" viewBox="0 0 18 18"><defs><radialGradient id="IconifyId19ce82fbaeb83e26b11" cx="5.72" cy="7.45" r="8.42" gradientTransform="translate(3.23 1.51)scale(1.01)" gradientUnits="userSpaceOnUse"><stop offset=".18" stop-color="#5ea0ef"/><stop offset=".56" stop-color="#5c9fee"/><stop offset=".69" stop-color="#559ced"/><stop offset=".78" stop-color="#4a97e9"/><stop offset=".86" stop-color="#3990e4"/><stop offset=".93" stop-color="#2387de"/><stop offset=".99" stop-color="#087bd6"/><stop offset="1" stop-color="#0078d4"/></radialGradient><radialGradient id="IconifyId19ce82fbaeb83e26b12" cx="28.18" cy="202.29" r="2.7" gradientTransform="matrix(.95 0 0 .95 -17.77 -185.01)" gradientUnits="userSpaceOnUse"><stop offset=".19" stop-color="#8c8e90"/><stop offset=".35" stop-color="#848688"/><stop offset=".6" stop-color="#6e7071"/><stop offset=".91" stop-color="#4a4b4c"/><stop offset="1" stop-color="#3e3f3f"/></radialGradient></defs><ellipse cx="9" cy="9" fill="url(#IconifyId19ce82fbaeb83e26b11)" rx="8.5" ry="8.47"/><ellipse cx="9" cy="9" fill="#fff" rx="7.4" ry="7.37"/><path fill="#9cebff" d="M2.72 9.44a6.24 6.24 0 001.82 4l2-2a3.53 3.53 0 01-1-2Z"/><path fill="#32bedd" d="M13.13 4.27a6.25 6.25 0 00-3.69-1.53v2.79a3.4 3.4 0 011.71.7Zm-8.26 0 2 2a3.4 3.4 0 011.71-.7V2.74a6.25 6.25 0 00-3.71 1.53m6.91 2.58a3.6 3.6 0 01.71 1.71h2.79a6.16 6.16 0 00-1.53-3.67Z"/><path fill="#50e6ff" d="m6.22 6.85-2-2a6.16 6.16 0 00-1.5 3.71h2.79a3.6 3.6 0 01.71-1.71"/><path fill="#f04049" d="M14.14 7a.45.45 0 00-.57-.25L9.45 8.41l.32.81 4.12-1.63a.44.44 0 00.25-.59"/><circle cx="9" cy="9" r="1.2" fill="url(#IconifyId19ce82fbaeb83e26b12)"/></svg></g></g></g><g class="icon-shape default" id="flowchart-defender-25" transform="translate(267.5625, 676)"><g transform="translate(0,-18)"><path d="M-24 -24 L24 -24 L24 24 L-24 24" stroke="none" stroke-width="0" fill="none"/></g><g class="label" style="" transform="translate(-65.15625,14)"><rect/><foreignObject width="130.3125" height="28"><div xmlns="http://www.w3.org/1999/xhtml" class="labelBkg" style="display: table-cell; white-space: nowrap; line-height: 1.5; max-width: 200px; text-align: center;"><span class="nodeLabel"><p>Storage Defender</p></span></div></foreignObject></g><g><path d="M-65.15625 -42 L65.15625 -42 L65.15625 42 L-65.15625 42" stroke="none" stroke-width="0" fill="transparent"/></g><g transform="translate(-24.000001430511475,-42.00402390956879)" style="color: #ccc;"><g><svg xmlns="http://www.w3.org/2000/svg" width="48" height="48" viewBox="0 0 18 18"><defs><linearGradient id="IconifyId19ce82fbaeb83e26b13" x1="9" x2="9" y1="16.795" y2="1.205" gradientUnits="userSpaceOnUse"><stop offset="0" stop-color="#5e9624"/><stop offset=".321" stop-color="#639d26"/><stop offset=".794" stop-color="#6fb12a"/><stop offset=".999" stop-color="#76bc2d"/></linearGradient></defs><path fill="#76bc2d" d="M16.083 8.438c0 4.571-5.626 8.25-6.85 9a.45.45 0 01-.466 0c-1.224-.747-6.85-4.426-6.85-9v-5.5a.44.44 0 01.434-.438C6.728 2.386 5.72.5 9 .5s2.272 1.886 6.649 2a.44.44 0 01.434.435Z"/><path fill="url(#IconifyId19ce82fbaeb83e26b13)" d="M15.5 8.485c0 4.191-5.16 7.566-6.282 8.25a.41.41 0 01-.428 0c-1.126-.684-6.29-4.059-6.29-8.25V3.441a.4.4 0 01.4-.4C6.916 2.935 5.992 1.205 9 1.205s2.084 1.73 6.1 1.837a.4.4 0 01.4.4Z"/><path fill="#fff" d="M11.853 7.66h-.408V6.243a2.65 2.65 0 00-.7-1.809 2.36 2.36 0 00-3.483 0 2.6 2.6 0 00-.7 1.808V7.66h-.415a.33.33 0 00-.326.32v3.682a.33.33 0 00.326.32h5.706a.33.33 0 00.326-.32V7.98a.33.33 0 00-.326-.32m-1.549 0H7.7V6.219a1.43 1.43 0 01.41-.99 1.2 1.2 0 011.788 0 1.4 1.4 0 01.153.2 1.45 1.45 0 01.258.791Z"/><path fill="#b3b3b3" d="M6.148 7.658h5.705a.33.33 0 01.21.08L5.938 11.9a.31.31 0 01-.116-.241v-3.68a.33.33 0 01.326-.321" opacity=".15"/><path fill="#a3a3a3" d="M11.853 7.658H6.147a.33.33 0 00-.209.08l6.124 4.162a.31.31 0 00.117-.241v-3.68a.33.33 0 00-.326-.321" opacity=".09"/></svg></g></g></g><g class="icon-shape default" id="flowchart-secondary-28" transform="translate(752.25, 813.5)"><g transform="translate(0,-30)"><path d="M-24 -24 L24 -24 L24 24 L-24 24" stroke="none" stroke-width="0" fill="none"/></g><g class="label" style="" transform="translate(-100,2)"><rect/><foreignObject width="200" height="52"><div xmlns="http://www.w3.org/1999/xhtml" class="labelBkg" style="display: table; white-space: break-spaces; line-height: 1.5; max-width: 200px; text-align: center; width: 200px;"><span class="nodeLabel"><p>Secondary Storage Account</p></span></div></foreignObject></g><g><path d="M-100 -54 L100 -54 L100 54 L-100 54" stroke="none" stroke-width="0" fill="transparent"/></g><g transform="translate(-24.000001311302185,-54.0133318901062)" style="color: #ccc;"><g><svg xmlns="http://www.w3.org/2000/svg" width="48" height="48" viewBox="0 0 18 18"><defs><linearGradient id="IconifyId19ce82fbaeb83e26b2" x1="9" x2="9" y1="15.83" y2="5.79" gradientUnits="userSpaceOnUse"><stop offset="0" stop-color="#b3b3b3"/><stop offset=".26" stop-color="#c1c1c1"/><stop offset="1" stop-color="#e6e6e6"/></linearGradient></defs><path fill="url(#IconifyId19ce82fbaeb83e26b2)" d="M.5 5.79h17v9.48a.57.57 0 01-.57.57H1.07a.57.57 0 01-.57-.57z"/><path fill="#37c2b1" d="M1.07 2.17h15.86a.57.57 0 01.57.57v3.05H.5V2.73a.57.57 0 01.57-.56"/><path fill="#fff" d="M2.81 6.89h12.37a.27.27 0 01.26.27v1.4a.27.27 0 01-.26.27H2.81a.27.27 0 01-.26-.27v-1.4a.27.27 0 01.26-.27"/><path fill="#37c2b1" d="M2.82 9.68h12.37a.27.27 0 01.26.27v1.41a.27.27 0 01-.26.27H2.82a.27.27 0 01-.26-.27V10a.27.27 0 01.26-.32"/><path fill="#258277" d="M2.82 12.5h12.37a.27.27 0 01.26.27v1.41a.27.27 0 01-.26.27H2.82a.27.27 0 01-.26-.27v-1.41a.27.27 0 01.26-.27"/></svg></g></g></g></g></g></g></svg>